<?xml version="1.0" encoding="UTF-8" standalone="no"?>
<svg
   xmlns:dc="http://purl.org/dc/elements/1.1/"
   xmlns:cc="http://creativecommons.org/ns#"
   xmlns:rdf="http://www.w3.org/1999/02/22-rdf-syntax-ns#"
   xmlns:svg="http://www.w3.org/2000/svg"
   xmlns="http://www.w3.org/2000/svg"
   xmlns:sodipodi="http://sodipodi.sourceforge.net/DTD/sodipodi-0.dtd"
   xmlns:inkscape="http://www.inkscape.org/namespaces/inkscape"
   version="1.1"
   id="svg2"
   xml:space="preserve"
   width="5333.3335"
   height="5333.3335"
   viewBox="0 0 5333.3335 5333.3335"
   sodipodi:docname="4200_1_07.eps"><metadata
     id="metadata8"><rdf:RDF><cc:Work
         rdf:about=""><dc:format>image/svg+xml</dc:format><dc:type
           rdf:resource="http://purl.org/dc/dcmitype/StillImage" /></cc:Work></rdf:RDF></metadata><defs
     id="defs6"><clipPath
       clipPathUnits="userSpaceOnUse"
       id="clipPath26"><path
         d="m 24825.8,29837 c 0,-4094.1 -3318.9,-7413.1 -7413,-7413.1 -4094.1,0 -7413.09,3319 -7413.09,7413.1 0,4094.1 3318.99,7413.1 7413.09,7413.1 4094.1,0 7413,-3319 7413,-7413.1"
         id="path24" /></clipPath></defs><sodipodi:namedview
     pagecolor="#ffffff"
     bordercolor="#666666"
     borderopacity="1"
     objecttolerance="10"
     gridtolerance="10"
     guidetolerance="10"
     inkscape:pageopacity="0"
     inkscape:pageshadow="2"
     inkscape:window-width="640"
     inkscape:window-height="480"
     id="namedview4" /><g
     id="g10"
     inkscape:groupmode="layer"
     inkscape:label="ink_ext_XXXXXX"
     transform="matrix(1.3333333,0,0,-1.3333333,0,5333.3333)"><g
       id="g12"
       transform="scale(0.1)"><path
         d="M 0,0 H 40000 V 40000 H 0 Z"
         style="fill:#67ecb4;fill-opacity:1;fill-rule:nonzero;stroke:none"
         id="path14" /><path
         d="m 17594.8,16718.1 c -82.8,0 -150,67.2 -150,150 v 9140.5 c 0,82.9 67.2,150 150,150 82.9,0 150,-67.1 150,-150 v -9140.5 c 0,-82.8 -67.1,-150 -150,-150"
         style="fill:#371a45;fill-opacity:1;fill-rule:nonzero;stroke:none"
         id="path16" /><path
         d="m 24045.8,33146.6 c 33.4,-67 66,-134.4 97.3,-202 1675.5,-3623.7 175.6,-7946.6 -3420.8,-9740.9 -3596.1,-1794.2 -7952.3,-393.1 -9839.9,3124.8 -35.2,65.6 -69.5,132.3 -102.9,199.3 -418.5,838.9 -663.1,1718.8 -747.4,2599.4 -281.24,2929 1210,5862 3969,7291.2 33.5,17.7 67.8,34.8 102.1,51.9 34.3,17.1 69,34.5 103.7,50.8 2801.6,1344.6 6041,771.8 8211.5,-1214.1 652.8,-596.9 1208.8,-1321.5 1627.4,-2160.4"
         style="fill:#00bdff;fill-opacity:1;fill-rule:nonzero;stroke:none"
         id="path18" /><g
         id="g20"><g
           id="g22"
           clip-path="url(#clipPath26)"><path
             d="m 21317.3,25719.5 c -34.5,365.7 -238.7,708.7 -542.6,911.1 -390.1,259.7 -478.7,828.6 -532.8,1236.7 -43.5,329.2 -250.7,585.2 -571.8,358.2 -737.7,-521.6 -1807.4,271.9 -2017.3,1032.8 -183.2,814.1 10.1,1526.2 423.5,2218.4 287,480.5 890.6,625.1 1375.3,387.9 571.2,-279.6 1461.7,585.4 1554.5,1150.3 10.6,64.4 17.5,151.4 -5.2,202.8 -231.2,519.4 -1023,552.8 -1287.6,70.9 -171.4,-312.1 -525.7,-425.5 -842.2,-256.8 -581.6,310 -764.7,51.1 -962.6,-519.8 -63.8,-184.1 -64.6,-516.9 -292.7,-375.5 -224.2,139.1 -416.4,416.5 -299.9,680.5 284.1,643.9 548.4,1327.5 718.2,2021.3 11.1,45.3 56.3,106.7 87.6,110 722.2,75.7 646.5,1006.7 788,1525.7 49.9,183 11.8,266.7 -106.2,339.1 -120.5,73.8 -176.6,-10 -223.2,-138.6 -78.2,-215.8 -154.9,-432.5 -234.4,-647.5 -40.8,-110.3 -55.6,-277.9 -178.3,-259.8 -143.8,21.2 -217.7,196.3 -209.3,355.4 24.1,455.8 144.9,964.5 422.3,1333.2 210,279 615.6,480.8 937.6,266.5 400,-266.1 711.7,-239.1 1149.5,-14.2 183.8,94.4 381.6,196.7 576.2,255.3 328.6,99.1 563.4,363.6 646.4,697.7 88.2,333.2 356.4,573.4 690.8,636.9 210.8,40 346.9,156.6 408.4,410.7 109.5,452.4 466.5,793.8 897,939.1 640.1,216.1 1168.6,180.4 1632.5,-297.6 126.6,-130.5 258.6,-79.6 382.3,-53 323.6,69.6 669.3,122.7 976.4,199.3 232.9,58.1 567.2,-52.2 717.6,-238.7 101.5,-125.9 219.4,-139.9 335.7,-123.2 159.9,22.8 332,25.8 483.1,43.3 364.8,42.2 520.1,-32.8 712.1,-361.6 76.1,-322.3 -138.3,-753 -440.2,-831.2 -87.7,-22.8 -193.8,-37.7 -294.5,-39.3 -282.3,-4.7 -329.2,-182.2 -234.6,-539 203,-765.7 -50.9,-1893.2 -867.6,-2177.1 -198.1,-68.9 -307.8,-146.6 -215.3,-461.3 48.4,-164.6 75.9,-359.2 -5.3,-529.4 -186.1,-390.2 -286.2,-830.4 -165.9,-1249.8 94.6,-329.9 -222.2,-578.8 -519,-404.6 -322.5,189.3 -637.2,405 -937,632.9 -231.7,176.1 -363.9,120.6 -462.2,-188.9 -84.7,-266.8 -224.8,-537.7 -289.5,-795.5 -82.5,-328.5 -358,-555.6 -659.7,-303.7 -344.6,219.3 -529.5,303 -884.9,213.3 -125.9,-31.8 -267.1,17.1 -388.8,109.5 -123.7,93.9 -267.2,198.1 -332.2,-56.4 -61.2,-239.7 137,-224.6 226.1,-297.5 161.6,-132.3 338,-237 507.3,-344.8 297.3,-189.2 330.6,-489.3 137.2,-770.5 -188.7,-274.3 -543.8,-500.4 -872.5,-273.4 -221.4,140.6 -439,288 -659.5,428.9 -104.6,66.8 -203,185.3 -298.5,-55.7 -101.3,-255.4 45.4,-274.4 142.3,-339.9 385.5,-260.6 772.8,-517.7 1167.2,-764.3 339.4,-212.1 453,-643 273,-994.7 -371.4,-725.4 -302.2,-1510 -37.7,-2325 108.2,-333.4 189.3,-662.9 262.2,-1007.5 148.6,-683.6 -172.5,-1703.7 -927.9,-1887.9 -300.6,-67.2 -548.8,142.2 -635.3,418.3 -74.6,238.1 -134.3,492.1 -196.1,737.7"
             style="fill:#5ce205;fill-opacity:1;fill-rule:nonzero;stroke:none"
             id="path28" /><path
             d="m 7095.57,30402.1 c -315.01,648.3 -266.86,1155.8 455.94,1434.9 1067.85,464 2121.97,959.5 3160.19,1482.7 175.2,88.2 354.8,194.4 510.6,1.5 131.7,-163.1 122.7,-368.6 55.7,-585.9 -118.8,-385.7 167.5,-482.2 437,-613 226.9,-110.1 476.7,31.4 663.4,218.7 164.3,164.7 -3.5,369.1 -36.9,551.8 -23.3,127.8 -96.8,264.1 0.7,376.8 100.7,116.3 203.9,6.2 290,-53.5 172.8,-119.5 337.4,-138.2 529.2,-29.1 167.9,95.5 347.7,90.1 476.5,-103.5 127.4,-191.6 107.5,-426.6 30.5,-639.9 -313.3,-868.4 -665.7,-1749.3 -972.1,-2594.2 -131.5,-362.8 -535.1,-486.9 -856.9,-621 -322.9,-134.7 -330.9,-493.7 -191.2,-764.6 57.6,-111.7 121.6,-192.8 224.1,-151.5 407.9,164.8 748.8,-132.9 1049.7,-342.4 231,-160.9 548.1,-261.3 825.2,-116.4 331.6,173.4 603.8,154.4 930.8,-42.5 256.4,-154.4 617.7,-386 937.4,-295.4 417,118.2 634.4,-1088.6 550.5,-1399.8 -229.6,-851.8 -542.1,-1762.4 -863,-2599.8 -174.4,-455.1 -203,-914.4 -53.8,-1360.9 74.7,-223.5 134,-486 189.1,-733.4 34.1,-153.3 144.6,-339.9 62.4,-459.4 -102.4,-148.8 -255.4,7.1 -374.1,77.8 -401.4,240.9 -652.6,692.7 -770.4,1130.2 -87.5,324.7 -189.5,658.1 -256.6,984.7 -133.5,649.9 -364.1,1338.9 -963.9,1715.9 -542.8,373.5 -740.9,1517.8 -576.7,2092.3 43,150.2 237.2,310.9 87.9,479.3 -155.5,175.4 -363.5,403.9 -574.1,320.3 -431.5,-171.2 -905.5,98.4 -1238.8,355.4 -324.8,250.6 -653.1,502.7 -1014.95,702.4 -531.91,288.6 -680.6,914 -864.05,1426.6 -155.73,435.1 -791.07,921.1 -1256.48,861.5 -340.73,-43.6 -451.12,-432.3 -602.85,-706.6"
             style="fill:#5ce205;fill-opacity:1;fill-rule:nonzero;stroke:none"
             id="path30" /><path
             d="m 14317,37028 c 133.9,73.3 276.2,151.8 402.2,218.4 269.5,142.4 735.7,543.1 981.2,113.1 351.5,-615.5 426.8,-1189.3 202.2,-1820.4 -191.3,-537.2 -424.1,-1114.5 -606.8,-1682.9 -153.3,-476.5 -343.4,-536.3 -653.5,-267.1 -178.7,155.1 -384.8,297.2 -455.6,545.9 -116.1,408 -414.7,713.7 -778.1,911.1 -201.3,109.4 -417.1,272.1 -347.9,646.9 59.7,323.8 130.3,730.7 454.7,895.5 263.5,133.9 534.6,290.3 802.3,437 l -0.7,2.5"
             style="fill:#5ce205;fill-opacity:1;fill-rule:nonzero;stroke:none"
             id="path32" /><path
             d="m 12161.7,33992.3 c -229.6,-140.2 -427.1,-239.6 -639.8,-150.7 -89.9,37.4 -165.1,110.6 -182.8,220.4 -24.5,150.8 95.6,179.6 174.6,226.8 133.1,79.5 271.1,145.2 406.1,221.1 240.2,135 513.6,207.3 593.4,-154 73.3,-332.5 -266.3,-231 -351.5,-363.6"
             style="fill:#5ce205;fill-opacity:1;fill-rule:nonzero;stroke:none"
             id="path34" /><path
             d="m 23161.7,27427.4 c -53.7,281.2 -76.6,647.5 189.6,825.8 199.1,133.4 227,-159.6 266.7,-321.9 68,-279 95.8,-646.2 -181.7,-826 -222.4,-144.1 -197.1,176.8 -274.6,322.1"
             style="fill:#5ce205;fill-opacity:1;fill-rule:nonzero;stroke:none"
             id="path36" /><path
             d="m 17429.8,35120.1 c 61.5,-236.2 170.4,-588.6 -85.9,-747.4 -161,-99.6 -183.9,157.2 -209.3,291.8 -45.3,239.1 -177.3,599.8 56.8,776.9 201.7,152.6 145,-256.2 238.4,-321.3"
             style="fill:#5ce205;fill-opacity:1;fill-rule:nonzero;stroke:none"
             id="path38" /><path
             d="m 16999.2,34513.5 c 36.6,-156.4 18.1,-280.2 -111.9,-340 -88.5,-40.7 -156.2,-12.5 -188.2,108.8 -39.8,151.4 -10.4,285 94.1,367.7 112,88.5 167.4,-10.9 206,-136.5"
             style="fill:#5ce205;fill-opacity:1;fill-rule:nonzero;stroke:none"
             id="path40" /><path
             d="m 21434.4,25739.7 31.5,-126.3 c 49.5,-199 100.7,-404.8 160.7,-596.1 63.2,-202.1 245.6,-394.2 496.3,-338.1 705,172 967.7,1149.7 837.9,1747 -83.1,392.6 -163,699.6 -259.2,996.1 -315.4,972 -301.2,1739.5 45,2415.6 153.9,300.7 54.9,661.9 -230.3,840.2 -433,270.7 -853.2,551.9 -1170.8,766.6 -13.1,8.8 -27.4,16.5 -41.6,24.3 -93.5,51.4 -267.6,147.2 -144.6,457.5 30.2,76 82.2,180.6 185.7,211.2 103.4,30.5 187.9,-29.7 249.6,-73.6 12.4,-8.8 24.8,-17.6 37.3,-25.7 105.3,-67.3 210,-136 314.7,-204.8 114.4,-75.3 229,-150.6 344.6,-224 93.6,-64.6 190.2,-86.7 290.7,-68.1 149.2,27.4 306.5,142.8 420.5,308.7 82.9,120.5 115.3,240.7 93.6,347.4 -20.3,99.6 -86.5,185.7 -196.8,255.9 -28.7,18.3 -57.6,36.5 -86.7,54.8 -143.7,90.4 -292.3,183.8 -432,298.2 -10.5,8.6 -36.2,19.3 -58.8,28.7 -90,37.4 -277.2,115.3 -207,390 12.1,47.6 49.1,192.4 176.1,236.7 130.7,45.7 253.1,-47.4 342.5,-115.3 101.7,-77.1 206.6,-109.5 288.2,-89 399.5,101 614.3,3 977.5,-228.1 l 12.4,-9.1 c 85,-70.9 165.3,-94.9 238.6,-71 100.3,32.7 190.6,155.3 230.1,312.5 38.6,153.9 102.2,310.9 163.7,462.7 45.5,112.3 92.5,228.4 127.9,339.8 41.2,130.1 114.1,308.7 270.1,358.1 109.8,34.8 233,-1.4 376.7,-110.6 314.3,-238.9 625.6,-449.2 925.3,-625 95.4,-56 197.3,-54.5 272.6,3.9 76.1,59 103.2,158.4 72.4,265.7 -115.4,402.4 -57.2,851.1 172.9,1333.6 53.8,112.8 53.4,258.4 -1.4,444.9 -112,380.8 35,517.9 290,606.6 718.5,249.9 994,1272.8 792,2034.8 -47.7,179.8 -88.2,405.1 22.8,551.9 66.5,87.8 175.6,133.6 324.5,136 88.1,1.5 185.2,14.4 266.6,35.5 227.6,59 410.4,406.4 358.2,672.8 -162.2,272.9 -270,324.1 -586.6,287.5 -68.5,-7.9 -141.3,-13 -211.7,-17.9 -89.6,-6.2 -182.2,-12.7 -268.3,-25 -187.6,-26.8 -333,27.5 -444.7,166.1 -121.9,151.2 -406.2,245.6 -596.7,198.2 -187.1,-46.7 -390,-85.1 -586.4,-122.3 -130.4,-24.7 -265.2,-50.3 -393.8,-77.9 -12.9,-2.8 -25.8,-5.9 -38.9,-8.9 -117.1,-27.5 -293.9,-69.1 -453.4,95.3 -398.4,410.3 -849.7,490.5 -1509.5,267.8 -417.8,-141.1 -724.3,-460.5 -819.6,-854.6 -69,-285 -233.1,-448.4 -501.6,-499.4 -293.9,-55.8 -523.1,-266.8 -598.3,-550.7 -94.3,-379.6 -366.2,-672.2 -726.8,-780.9 -181.1,-54.6 -367.3,-150.2 -547.3,-242.7 l -9,-4.6 c -419.2,-215.4 -795.5,-294.2 -1269.2,21 -274.6,182.7 -619.8,-29.8 -777.3,-239.1 -310.3,-412.4 -382.9,-971.6 -398.6,-1268.1 -5.7,-107.8 39.1,-210.4 97.7,-229.5 12.1,22.2 25.7,69.1 34.3,98.9 8.3,28.6 16.6,56.8 26,82.3 52.1,141.1 103.1,282.8 154.1,424.6 26.6,74.1 53.3,148.2 80,222.2 34.6,95.2 83.5,197.3 184.8,232.7 66.3,23.2 137.7,12 211.8,-33.5 172.5,-105.7 220,-246.7 158.7,-471.3 -30.9,-113.3 -51.4,-251.1 -73.1,-396.9 -74.8,-503.9 -167.7,-1129.2 -789,-1212.2 -5.6,-7.8 -11.2,-17.9 -12.7,-23.6 -149.3,-609.7 -379.6,-1258.3 -724.9,-2041 -95.2,-215.7 99.6,-436.2 253.9,-531.8 11,-6.8 19.2,-10.8 25,-13.1 20.5,33.2 41.2,123.9 52.9,175 11.7,51.2 23.8,104.2 40.3,151.7 126.8,365.9 250.8,610.5 476.3,698.9 173.5,68.1 381.4,32 654.1,-113.4 254.4,-135.6 541.4,-47.6 682.5,209.2 143.5,261.5 433.6,415.4 758.4,401.8 331.3,-13.8 615.3,-198.3 741.4,-481.5 28.3,-63.9 32.9,-154.8 13.9,-270.3 -67.5,-411 -496.2,-938.2 -955.5,-1175.2 -285.3,-147.1 -550.8,-168.7 -768.2,-62.3 -448.5,219.6 -973.6,72.5 -1221.3,-342.2 -440.2,-736.9 -570.6,-1413.4 -410.2,-2128.8 120.6,-432.9 554.2,-881.6 1009.7,-1044.3 215.7,-77 533.8,-125.8 824.1,79.5 196.7,139.2 351.2,118.9 446.1,77.4 164.1,-71.7 277.7,-260 311.7,-516.8 58.5,-442.2 148.8,-932.5 480.9,-1153.6 332.1,-221.1 553.6,-590.5 594,-989.6 m 601.7,-1307.3 c -312.9,0 -550.5,241.6 -635.8,514 -62.1,198.1 -114.2,407.4 -164.5,609.8 l -36.6,152.2 c -31.3,332.1 -214.5,639.9 -490.2,823.5 -414.8,276.1 -519.2,826.1 -584.6,1319.9 -21.8,164.9 -89.1,294.7 -171.5,330.6 -56.7,24.9 -128.9,6.8 -214.3,-53.7 -291.5,-206 -661,-244.8 -1040.8,-109.1 -531.1,189.7 -1018.7,697.4 -1159.3,1207.2 l -1.3,5.5 c -175.5,779.4 -36.5,1511.9 437.3,2305.2 311.5,521.5 968.8,707.9 1529.2,433.6 186.1,-91.1 404.6,-17.7 555.2,60 387.3,199.9 775.3,668.5 830.3,1003 13.8,84.3 6.8,127.3 3.3,135.7 -106.5,239.1 -346,332.9 -534.6,340.7 -233.8,10.4 -440.9,-97.1 -540.7,-279 -203,-369.7 -633.8,-500.6 -1001.9,-304.3 -204.1,108.8 -353.4,142.2 -455.9,101.9 -140.4,-55.1 -237,-262.1 -338.9,-555.9 -12.2,-35.2 -22.4,-79.7 -33.1,-126.9 -31.5,-137.5 -67.1,-293.5 -193.6,-346.4 -72.5,-30.2 -153.4,-18.1 -240.5,35.9 -277.7,172.2 -485.7,512.2 -345.9,829 339.6,769.7 565.7,1405.8 711.6,2001.7 18.2,74.4 91.3,189.3 190.3,199.7 430.5,45.2 523.2,449 607.2,1014.5 22.8,153.1 44.2,297.6 78.8,424.5 40.6,148.9 5.1,170.7 -53.8,206.8 -4.3,2.6 -8,4.6 -11,6.1 -7.7,-11.1 -20.9,-34.7 -38.7,-84 -26.8,-73.8 -53.3,-147.7 -79.9,-221.7 -51.2,-142.4 -102.4,-284.8 -154.8,-426.5 -7.6,-20.4 -14,-43.1 -20.6,-66 -28.2,-97.3 -86.5,-299.5 -286.3,-270 -216.3,32 -321.3,270.7 -310.3,479 17.1,323.5 97.8,935.4 446,1398.2 249.1,331 718.5,546.5 1098,293.9 340.2,-226.3 599.9,-228.2 1029.6,-7.5 l 8.9,4.6 c 180.7,92.8 385.5,198 587.3,258.8 279.7,84.4 491.2,313.4 565.6,612.8 99.1,374.7 399.3,651.8 783.7,724.8 176.7,33.6 268.1,126.9 315.3,322.1 114.7,473.7 478.9,856.3 974.3,1023.5 738.9,249.5 1296.7,145.4 1755.5,-327.3 63.2,-65.2 115.8,-56.2 229,-29.6 14.5,3.4 28.9,6.8 43.3,9.9 131.4,28.2 267.7,54.1 399.5,79 193,36.6 392.6,74.4 573.1,119.5 276.8,68.9 660.9,-58.9 838.6,-279.4 59.4,-73.7 120.8,-95.4 226.6,-80.3 94.6,13.5 191.6,20.3 285.4,26.9 70.9,4.9 137.9,9.6 200.9,16.9 413.5,47.6 614.7,-54.2 828,-419.6 l 9,-15.3 4,-17.2 c 94,-398 -166.4,-880.2 -525.8,-973.3 -100.2,-26 -214.6,-41.3 -322.2,-43 -49.7,-0.9 -114.1,-8.8 -139.3,-42.1 -25.3,-33.5 -42.9,-121 17.3,-348.1 202.7,-764.4 -12.4,-1995.7 -943.3,-2319.4 -149.7,-52.1 -211.6,-73.6 -140.5,-315.9 72,-245.1 68.1,-445.8 -12,-613.8 -204.4,-428.7 -257.9,-821.1 -158.9,-1166.1 57.6,-201 -1.8,-399.6 -155.1,-518.5 -152.4,-118.2 -358.5,-126.3 -537.9,-21 -307.8,180.6 -627,396.2 -948.8,640.7 -107.3,81.6 -150.8,76.8 -161.6,73.4 -13.3,-4.2 -61.1,-31.4 -115.8,-203.8 -38.1,-120.2 -86.9,-240.6 -134.1,-357.1 -61.1,-150.9 -118.8,-293.5 -153.4,-431.4 -60.7,-241.7 -205.3,-421.2 -386.7,-480.3 -149.5,-48.6 -311.9,-9.8 -457.8,109.5 -321,203.9 -473.6,273.2 -786.1,194.3 -154,-38.8 -327.8,7.4 -489.5,130.1 -27.6,20.9 -88.5,67.2 -119.6,77.1 -5.8,-9.1 -15.9,-29 -26,-68.4 -19.4,-75.9 -17.7,-76.6 68.4,-112.4 37.7,-15.7 80.4,-33.5 117.8,-64.1 128.4,-105 270.6,-194.5 408.2,-281 29.4,-18.5 58.7,-36.9 87.8,-55.5 164.3,-104.6 268.6,-245.9 301.7,-408.6 34.9,-171.3 -10.3,-354.3 -130.5,-529.1 -149,-216.6 -363.2,-368.9 -573,-407.5 -162.4,-30 -323,6 -464.6,103.7 -112.8,71.6 -228.3,147.5 -343.8,223.4 -103.9,68.3 -207.7,136.5 -312.2,203.3 -15.8,10 -31.4,21.1 -47,32.2 -13.7,9.7 -32.2,22.9 -46.2,31.1 -7.3,-10.8 -18.2,-30.1 -31.2,-62.9 -46,-115.9 -34.8,-122.1 38.4,-162.3 20.6,-11.4 41.1,-22.9 60.1,-35.7 316,-213.6 733.8,-493.2 1163.7,-762 390.3,-244 526,-738.1 315.6,-1149.2 -315.5,-616.3 -325.2,-1326.3 -30.4,-2234.4 97.5,-300.6 181.9,-624.6 265.4,-1019.5 153.4,-705.5 -158.7,-1818.6 -1015.8,-2027.7 -48.3,-10.7 -95.3,-15.9 -140.7,-15.9"
             style="fill:#54a520;fill-opacity:1;fill-rule:nonzero;stroke:none"
             id="path42" /><path
             d="m 12164.4,27899.4 c 235.7,0 440.5,-230.9 571.1,-378.3 161.7,-182.3 54.9,-369.4 -8.9,-481.2 -23.1,-40.5 -45,-78.8 -53.7,-109.3 -150.7,-527.1 26.8,-1615.8 529.9,-1962.1 656.2,-412.2 886.2,-1173.1 1012.8,-1789.7 48.2,-234.6 116.1,-477.7 181.8,-712.8 24.8,-88.7 49.5,-177.1 73.2,-264.9 128.3,-476.8 389.7,-863 716.9,-1059.4 23.8,-14.2 49.4,-31.7 75.6,-49.8 37.1,-25.7 105.5,-73 131.7,-73.2 0.2,0.8 3.5,4 8.2,10.8 25.6,37.4 -9,139.2 -36.9,221.1 -16.1,47.4 -32.8,96.5 -43.7,145.3 -49.1,220.9 -110.3,496 -185.7,721.6 -153.5,459.3 -134.9,944.1 55.5,1440.9 356.4,930.1 653.6,1825.1 859.3,2588.3 57,211.7 -63.8,987 -291.3,1211.6 -59.1,58.4 -96.4,47.8 -112.4,43.3 -355.1,-100.5 -725.6,123.3 -996.1,286.8 l -34.8,21 c -297.5,179.1 -525.9,190.1 -814.8,39 -275.1,-143.9 -629.5,-97.5 -947.9,124.2 -31.9,22.2 -64.2,45.3 -97,68.9 -263.4,188.8 -535.7,384.1 -840.5,260.9 -146.8,-59.1 -272.5,10.5 -373.9,207.1 -104.3,202.2 -127.7,429.6 -62.5,608.3 53.2,146 161.6,256.7 313.5,320 35.8,14.9 72.6,29.7 109.9,44.7 286.2,115.1 582.1,234.2 681.2,507.3 148.9,410.8 311.8,838.1 469.3,1251.4 168,440.8 341.8,896.5 502.7,1342.6 54.1,150.1 95,364.5 -17.7,534.1 -51.4,77.1 -140.2,167.9 -319.2,66 -223.4,-127 -437.8,-115.7 -655.2,34.8 -13.7,9.4 -27.7,20 -42.1,30.8 -22.2,16.8 -62.5,47.1 -81.2,52.1 -2,-1.6 -5.3,-4.6 -9.7,-9.6 -31.3,-36.2 -23.5,-80.8 3.4,-181.4 8.3,-31 16.8,-63 23,-96.5 7.5,-41.4 25.5,-88.8 44.6,-139.1 55.3,-145.9 131.1,-345.7 -40.4,-517.7 -268.9,-269.6 -560.1,-357.7 -799.2,-241.6 -21.4,10.4 -42.9,20.5 -64.3,30.6 -242.1,114.5 -573.7,271.2 -434.2,723.9 66,214.1 55,365.5 -34.6,476.5 -76.6,94.8 -140.7,81.1 -337.4,-18.9 l -27.6,-14 C 9715.58,32685 8650.26,32185.2 7598.75,31728.3 c -284.93,-110.1 -456.49,-252.3 -528.95,-436.4 -63.83,-162.1 -52.66,-362.2 34.6,-607.5 116.12,236.2 267.89,502.1 578.95,541.9 529.71,67.5 1214.77,-468.7 1383.18,-939.2 23.71,-66.2 46.85,-134.3 70.28,-203.3 155.2,-457 315.68,-929.5 738.67,-1159 375.32,-207.2 708.62,-464.2 1030.92,-712.7 445.7,-343.7 823.4,-457.8 1122.6,-339.1 46,18.3 91.2,26.4 135.4,26.4 M 15396,20781.5 c -101,0 -192.5,63.3 -267.8,115.4 -21.5,14.8 -42.4,29.4 -62.3,41.3 -379.8,227.9 -680.1,665.7 -824.3,1201.3 -23.4,87 -47.9,174.7 -72.5,262.7 -66.8,239.1 -135.9,486.2 -185.7,728.9 -117.1,570.4 -326.5,1272.1 -910.9,1639.4 -604.3,415.8 -796.1,1635.8 -627.6,2225.3 16.6,58 46.7,110.7 75.8,161.6 72.6,127.2 78.6,160 37.4,206.4 -154,173.7 -315.1,339.4 -441.7,288.8 -382.4,-151.7 -838.3,-26.6 -1354.8,371.8 -315.3,243 -641.2,494.4 -999.93,692.3 -503.83,273.4 -687.4,813.9 -849.36,1290.8 -23.03,67.8 -45.73,134.7 -69.03,199.8 -135.81,379.4 -719.26,836.4 -1129.81,783.8 -210.37,-26.9 -314.54,-242.1 -424.82,-469.9 -28.54,-59 -58.08,-120 -89.34,-176.5 l -110.53,-199.9 -99.84,205.4 c -202.47,416.7 -248.17,753.1 -139.77,1028.5 96.78,245.9 318.7,437.3 659.63,568.9 1042.88,453.3 2104.06,951.2 3149.6,1477.9 l 26.9,13.7 c 167.7,85.2 421.1,214.1 629.3,-43.6 141.7,-175.5 166.8,-402.9 76.7,-695.2 -75.8,-246 39.9,-312.5 308.9,-439.7 22.2,-10.5 44.4,-21 66.5,-31.7 202.5,-98.3 436.5,104.1 527.8,195.7 54.7,54.9 45.2,111.7 -13.4,266.2 -22,58 -44.8,117.9 -56.2,180.6 -4.4,24.1 -11.4,50.3 -18.8,78 -29.6,110.9 -70.2,262.9 46.4,397.6 158.8,183.4 343.5,44.1 413,-8.3 11.7,-8.8 23.1,-17.5 34.2,-25.2 142.5,-98.5 259.3,-105.4 403.1,-23.6 245.3,139.5 482.3,87 633.8,-140.9 132.5,-199.2 147.5,-457.1 43.3,-745.7 -161.6,-448.1 -335.7,-904.9 -504.1,-1346.6 -157.2,-412.4 -319.7,-838.8 -468,-1247.8 -135.2,-372.7 -512.5,-524.5 -815.6,-646.4 -36.4,-14.7 -72.3,-29.1 -107.2,-43.7 -90.4,-37.6 -151.6,-99 -182,-182.4 -42.8,-117.5 -24,-273.9 50.5,-418.3 40.5,-78.5 62.8,-95.1 68.4,-98.2 0.5,0.4 2.7,0.9 6,2.3 425.7,171.9 781.5,-83.1 1067.4,-288.1 31.9,-22.9 63.4,-45.5 94.4,-67.1 91.6,-63.7 412.9,-260 702.6,-108.6 364.1,190.4 677.1,176.6 1046.8,-46 l 35.2,-21.2 c 233.3,-141 552.9,-334 808.8,-261.6 85,24 213.6,25.8 343.7,-102.6 302.8,-299.1 426.3,-1172.5 353.6,-1442.2 -207.8,-770.8 -507.5,-1673.8 -866.8,-2611.3 -170.2,-444.1 -187.7,-875.1 -52.1,-1281 79.3,-237.3 142,-518.9 192.4,-745.2 8,-36.1 21.9,-77.1 36.7,-120.5 44.9,-132 100.9,-296.4 7.7,-431.8 -52.3,-76 -115.8,-101.6 -159.8,-109.7 -14.4,-2.6 -28.6,-3.9 -42.5,-3.9"
             style="fill:#54a520;fill-opacity:1;fill-rule:nonzero;stroke:none"
             id="path44" /><path
             d="m 14456,36969 0.7,-2.5 -82,-44.9 c -79,-43.3 -158.3,-87.5 -237.7,-131.7 -187,-104.1 -380.4,-211.8 -567.9,-307.1 -267.3,-135.8 -332.1,-487 -389.2,-796.9 l -2.6,-14.4 c -51,-276.1 72.4,-404.1 287.9,-521.2 299.9,-162.9 688.3,-465.7 835.6,-982.8 50.9,-178.9 191.9,-297.3 341.2,-422.6 26.2,-22 52.4,-44 78,-66.2 113.7,-98.8 202.7,-142.9 257.5,-127.6 39.2,10.9 118.1,69.8 205.4,341.4 117.3,364.8 255.2,733.5 388.5,1090 77.4,206.9 150.4,402.4 219.5,596.3 209.7,589.3 150.1,1120.3 -193.4,1721.9 -40.7,71.3 -87.8,112.9 -144,127.3 -144.9,37.2 -355.3,-92.1 -524.6,-195.9 -54.8,-33.6 -106.4,-65.2 -154.3,-90.5 -100,-52.9 -210.4,-113.3 -318.6,-172.6 m 498.3,-3658.2 c -152.2,0 -292.1,104.1 -389.7,188.8 -24.7,21.4 -49.8,42.5 -75.1,63.7 -162.2,136.2 -346,290.5 -416.8,539.3 -124.7,437.9 -460.7,698.1 -720.7,839.4 -136.8,74.3 -500.3,271.8 -407.9,772.6 l 2.6,14.3 c 60.5,327.6 143.1,776.4 515,965.3 183.5,93.2 374.9,199.8 560,302.9 52.4,29.2 104.8,58.3 157.1,87.3 l -0.1,0.2 128.7,73.3 c 120.1,65.9 244.7,134.2 356.4,193.3 41.2,21.7 89.7,51.5 141.1,83 207.5,127.2 465.7,285.5 707.5,223.5 119.9,-30.8 217.8,-111.3 291,-239.4 375.7,-658 442.7,-1267.7 210.9,-1919 -69.7,-195.7 -143.1,-392 -220.8,-599.8 -132.4,-354 -269.2,-720 -384.9,-1079.6 -96.4,-299.8 -209.7,-453.2 -367.3,-497.2 -29.3,-8.2 -58.4,-11.9 -87,-11.9"
             style="fill:#54a520;fill-opacity:1;fill-rule:nonzero;stroke:none"
             id="path46" /><path
             d="m 12248.6,34501.5 c -52.3,0 -137,-19.8 -270.7,-95 -57.5,-32.3 -115.5,-62.7 -173.4,-93.2 -79.9,-42 -155.3,-81.7 -230,-126.3 -15.3,-9.1 -31.9,-17.7 -48.8,-26.4 -76.2,-39.1 -75.4,-43.7 -69.6,-79.7 12,-74 67.2,-111.5 111.4,-130 146.1,-60.9 289.2,-4.3 513.6,131.1 56,65.4 138.9,88.5 207,107.4 119.8,33.3 132.3,36.8 109.3,141 -19.4,87.7 -50.9,141.9 -93.7,161.1 -11.9,5.3 -29.7,10 -55.1,10 m -561.3,-812.5 c -68.7,0 -138.9,13 -211.1,43.1 -138.9,58 -231.6,171.3 -254.2,310.9 -34.1,210.6 120.8,290.2 195.3,328.5 12.4,6.3 24.5,12.4 35.7,19.1 80.1,47.9 162,90.9 241.2,132.5 55.9,29.5 112,58.9 167.5,90.1 223.8,125.9 400.1,156.8 538.9,94.7 115.1,-51.5 191.9,-161.3 228.3,-326.5 71.4,-323.4 -164.1,-388.9 -277.2,-420.4 -30.1,-8.4 -80.4,-22.4 -90.9,-33.6 l -14.7,-22.9 -22.6,-13.4 c -176.1,-107.5 -350.9,-202.1 -536.2,-202.1"
             style="fill:#54a520;fill-opacity:1;fill-rule:nonzero;stroke:none"
             id="path48" /><path
             d="m 23275.2,27465.4 c 23.7,-50.7 37.7,-107.9 51.3,-163.4 7.6,-31.1 19.2,-78.2 30.4,-106.1 4.3,2.3 9.2,5.2 14.9,8.9 172.7,111.9 216.8,346.9 131,698.4 -5.5,22.3 -10.7,47 -16.2,72.8 -10.7,50.5 -31.8,149.6 -54.6,187.6 -3.9,-2.1 -8.8,-4.9 -14.7,-8.9 -161,-107.9 -207.6,-333.4 -142.1,-689.3 m 64.2,-515.1 c -25.1,0 -49.2,4.6 -72.4,13.8 -112.8,44.8 -143.6,170.5 -170.8,281.5 -11.7,47.8 -23.8,97.3 -39.1,125.9 l -8.5,15.9 -3.3,17.7 c -33,172.3 -133.2,696.6 240.1,946.6 102.8,68.9 183.9,59.2 233.8,38.9 133.3,-54.1 169.9,-226.7 199.3,-365.4 5,-23.3 9.7,-45.6 14.6,-65.8 139.9,-573.1 -49.1,-834.9 -232.3,-953.6 -57.1,-36.9 -111.1,-55.5 -161.4,-55.5"
             style="fill:#54a520;fill-opacity:1;fill-rule:nonzero;stroke:none"
             id="path50" /><path
             d="m 17254.3,35377.1 c -2.7,-1.8 -5.8,-4 -9.2,-6.6 -141.1,-106.7 -107.6,-311.5 -49.3,-568.2 9.7,-42.6 19,-83.4 26.1,-121.3 2.8,-14.6 5.6,-30.7 8.4,-47.6 8.5,-49.6 27.7,-161.9 52.6,-192.5 3.2,1.3 7.9,3.6 14.2,7.4 173.3,107.4 128,340.9 56.3,612.5 l -3.3,12.6 c -41.1,48.2 -55.4,121.2 -70.4,197.8 -6.1,31.2 -15.3,78.5 -25.4,105.9 z m 23.6,-1115.7 c -26.4,0 -48.6,6.3 -65.8,14.1 -109.4,49.3 -135.8,203.8 -157.1,327.9 -2.6,15.8 -5.2,30.9 -7.8,44.6 -6.8,35.8 -15.6,74.5 -24.8,114.9 -54.2,238.4 -128.5,564.9 115.3,749.4 65.3,49.4 126.4,63.8 181.8,42.5 92.9,-35.4 114.1,-144.2 134.7,-249.4 7.2,-36.6 19,-96.9 30.3,-115.1 l 23,-16 17.9,-68 c 65.6,-248.4 164.7,-623.8 -134.7,-809.1 -43,-26.7 -81,-35.8 -112.8,-35.8"
             style="fill:#54a520;fill-opacity:1;fill-rule:nonzero;stroke:none"
             id="path52" /><path
             d="m 16867.4,34592.8 c -4,-2 -10.3,-5.7 -19,-12.6 -92.9,-73.4 -85.7,-190.2 -63.3,-275.2 11.3,-42.9 24.8,-57.5 29,-59.5 1.7,-0.9 13,-1.8 36,8.8 37.2,17.1 106.2,48.9 63.2,236 -21.3,68.5 -38.2,93.8 -45.9,102.5 z m -49.7,-525.5 c -33.1,0 -59.7,8 -79.5,17.4 -59.9,28.2 -101.9,87.1 -125,175 -50.1,190.1 -4.5,357.7 124.9,460 76.5,60.6 140.5,58.3 180.7,45.8 94,-29.3 137.8,-136.1 165.4,-225.9 l 1.5,-5.8 c 51.5,-219.7 -2.7,-368.1 -161.3,-441 -40.7,-18.8 -76.4,-25.5 -106.7,-25.5"
             style="fill:#54a520;fill-opacity:1;fill-rule:nonzero;stroke:none"
             id="path54" /></g></g><path
         d="m 20822.5,32828.3 c -154.7,144.8 -302.9,295.8 -437.2,445 -63.3,70.3 -135.5,143.6 -214.6,219.4 49.7,12.2 102.1,18.5 156.2,18.5 10.3,0 20.6,-0.2 31,-0.7 188.6,-7.8 428.1,-101.6 534.6,-340.7 3.5,-8.4 10.5,-51.4 -3.3,-135.7 -10.7,-64.6 -33.7,-134.1 -66.7,-205.8 m 1841.6,60.6 c -45.6,32.2 -90.3,65.8 -133.5,101.1 -37.4,30.6 -80.1,48.4 -117.8,64.1 -86.1,35.8 -87.8,36.5 -68.4,112.4 10.1,39.4 20.2,59.3 26,68.4 31.1,-9.9 92,-56.2 119.6,-77.1 36.9,-28.1 74.5,-52.1 112.3,-72 22.5,-64.5 43.1,-130 61.8,-196.9 m -4372.6,2225.8 c -262.7,267.8 -369.8,468.5 -159.3,538.4 5.9,-1.2 11.9,-2.3 18,-3.2 13.4,-2 26.2,-2.9 38.3,-2.9 43.8,0 79.8,12.2 109.5,31.9 7.3,0.3 14.6,0.5 22.2,0.7 34.4,0.9 69.4,1.3 104.3,1.3 72.1,0 145,-1.8 218.8,-5.5 -64.2,-271.2 -160.1,-470.9 -351.8,-560.7"
         style="fill:#66d7ff;fill-opacity:1;fill-rule:nonzero;stroke:none"
         id="path56" /><path
         d="m 22422.9,31853.2 c -344.9,0 -901.1,357.3 -1417.7,809.7 59.4,114 100.6,227.2 117.9,332.7 19,115.5 14.4,206.4 -13.9,270.3 -126.1,283.2 -410.1,467.7 -741.4,481.5 -13.3,0.6 -26.4,0.9 -39.6,0.9 -126.8,0 -247.5,-25.7 -355.3,-73.3 -472.4,421.5 -1088.1,888.8 -1500.6,1266.3 239.4,150.1 347.7,426.3 411.6,715.9 1348.7,-136.5 2889.1,-863 3559.5,-2197 -26.3,8.7 -53.4,13.9 -81.2,13.9 -23.4,0 -47.3,-3.7 -71.4,-12.2 -127,-44.3 -164,-189.1 -176.1,-236.7 -70.2,-274.7 117,-352.6 207,-390 22.6,-9.4 48.3,-20.1 58.8,-28.7 115.8,-94.8 237.7,-175.2 357.8,-251.4 80.9,-503.9 -58.8,-701.9 -315.4,-701.9"
         style="fill:#9dee69;fill-opacity:1;fill-rule:nonzero;stroke:none"
         id="path58" /><path
         d="m 22738.3,32555.1 c -120.1,76.2 -242,156.6 -357.8,251.4 -10.5,8.6 -36.2,19.3 -58.8,28.7 -90,37.4 -277.2,115.3 -207,390 12.1,47.6 49.1,192.4 176.1,236.7 24.1,8.5 48,12.2 71.4,12.2 27.8,0 54.9,-5.2 81.2,-13.9 60.2,-119.9 113.4,-244.7 158.9,-374.4 -37.8,19.9 -75.4,43.9 -112.3,72 -27.6,20.9 -88.5,67.2 -119.6,77.1 -5.8,-9.1 -15.9,-29 -26,-68.4 -19.4,-75.9 -17.7,-76.6 68.4,-112.4 37.7,-15.7 80.4,-33.5 117.8,-64.1 43.2,-35.3 87.9,-68.9 133.5,-101.1 6.3,-22.8 12.4,-45.8 18.3,-68.9 24.5,-96.4 43,-184.6 55.9,-264.9 m -1733.1,107.8 c -61.6,54 -122.6,109.2 -182.7,165.4 33,71.7 56,141.2 66.7,205.8 13.8,84.3 6.8,127.3 3.3,135.7 -106.5,239.1 -346,332.9 -534.6,340.7 -10.4,0.5 -20.7,0.7 -31,0.7 -54.1,0 -106.5,-6.3 -156.2,-18.5 -62.1,59.5 -128.5,120.5 -197.8,182.3 107.8,47.6 228.5,73.3 355.3,73.3 13.2,0 26.3,-0.3 39.6,-0.9 331.3,-13.8 615.3,-198.3 741.4,-481.5 28.3,-63.9 32.9,-154.8 13.9,-270.3 -17.3,-105.5 -58.5,-218.7 -117.9,-332.7 m -2532.9,2278.4 c -65.9,60.2 -126.7,118.3 -180.8,173.4 191.7,89.8 287.6,289.5 351.8,560.7 79.4,-3.9 159.6,-10 240.6,-18.2 -63.9,-289.6 -172.2,-565.8 -411.6,-715.9 m -283.8,705.7 c -12.1,0 -24.9,0.9 -38.3,2.9 -6.1,0.9 -12.1,2 -18,3.2 42.1,14 96.9,22.7 165.8,25.8 -29.7,-19.7 -65.7,-31.9 -109.5,-31.9"
         style="fill:#98c979;fill-opacity:1;fill-rule:nonzero;stroke:none"
         id="path60" /><path
         d="m 24531.9,30854.5 c -113,506.6 -281.2,1008.3 -507.4,1497.4 -31.2,67.6 -63.9,135 -97.3,202 -43.7,87.6 -89,174.1 -135.7,259.2 76.7,-56.9 157.3,-92.1 237.8,-104.5 246.5,-565.8 422.4,-1169 516.7,-1798.5 -4.6,-18.5 -9.3,-37.2 -14.1,-55.6 M 11215.4,33489 c -5.1,3.4 -10.3,6.7 -15.4,9.9 57.7,97.5 117.4,193.2 179.5,287.8 11.5,-8.5 23.5,-16.6 36,-24 -68.9,-89.8 -135.6,-181.1 -200.1,-273.7 m 891.4,1229.4 c 255,277 531.2,533.8 826.1,768.2 8.1,-78.2 29,-146.1 57.7,-205.2 -239.4,-170.2 -466.4,-353 -680.3,-547 -19.7,3 -40,4.5 -61,4.5 -44.5,0 -91.9,-6.8 -142.5,-20.5 m 6688.2,1785.7 c -46.7,9.7 -93.3,18.9 -140.2,27.7 12.3,34.1 24.6,68.2 37,102.3 17.8,49.3 31,72.9 38.7,84 3,-1.5 6.7,-3.5 11,-6.1 58.9,-36.1 94.4,-57.9 53.8,-206.8 -0.1,-0.4 -0.2,-0.7 -0.3,-1.1 m -2673.5,61.9 c -19.3,116.7 -48.9,233.7 -89,351.6 446.9,86.9 908.2,132.5 1380.1,132.5 203.7,0 405.1,-8.5 604.5,-25.1 -49.4,-133 -85.6,-266.2 -111.9,-391.8 -204.7,17.1 -410.4,25.7 -616.8,25.7 -388.1,0 -778.1,-30.5 -1166.9,-92.9"
         style="fill:#99e5ff;fill-opacity:1;fill-rule:nonzero;stroke:none"
         id="path62" /><path
         d="m 23871.3,33047.1 c -119.1,75 -222.4,134.9 -322.6,177.3 -355.5,560 -776.8,1058.3 -1248.8,1489.9 -933.5,854 -2064.3,1446.7 -3273.3,1737.9 54.5,208 13.6,343.3 -136,445.6 2184.6,-456.7 4009.6,-1905.1 4980.7,-3850.7 m -5453.9,3525.2 c -91.4,14.1 -183.1,26.5 -275.1,37.2 27.6,126.4 66,259.8 119.3,390.9 129,-15.2 257.1,-33.8 383.9,-55.8 -95.8,-37.9 -143.1,-137.1 -176.7,-229.7 -17.1,-47.5 -34.3,-95 -51.4,-142.6"
         style="fill:#bef39b;fill-opacity:1;fill-rule:nonzero;stroke:none"
         id="path64" /><path
         d="m 11079,33286.2 c 1.1,2 2.2,4 3.3,6 0.1,-0.1 0.3,-0.2 0.4,-0.3 -1.2,-1.9 -2.5,-3.8 -3.7,-5.7"
         style="fill:#bef39b;fill-opacity:1;fill-rule:nonzero;stroke:none"
         id="path66" /><path
         d="m 13188.6,35417.5 c -25.1,68.9 -30.3,151.2 -11.3,254 l 0.2,1.1 c 772.7,562.3 1661.2,975.3 2622,1195.6 41.2,-115.7 71.1,-229.8 89.7,-343.3 -610.1,-118.1 -1215.2,-315.5 -1800.9,-596.6 -34.7,-16.3 -69.4,-33.6 -103.7,-50.7 -34.3,-17.1 -68.6,-34.2 -102.1,-52 -241,-124.8 -472.5,-261.2 -693.9,-408.1"
         style="fill:#bef39b;fill-opacity:1;fill-rule:nonzero;stroke:none"
         id="path68" /><path
         d="m 11565.6,33951.7 c -17,7.3 -35.5,17.4 -52.5,31.2 69.5,98.5 141.6,195.6 215.7,290.4 24.9,13.2 50.1,26.5 75.7,40 53.2,28 106.4,56 159.3,85.3 -139.3,-144 -272,-293.1 -398.2,-446.9"
         style="fill:#bef39b;fill-opacity:1;fill-rule:nonzero;stroke:none"
         id="path70" /><path
         d="m 24029.3,32708.6 c -80.5,12.4 -161.1,47.6 -237.8,104.5 -77,140.6 -158.1,277.7 -242.8,411.3 100.2,-42.4 203.5,-102.3 322.6,-177.3 55.5,-111.3 108.2,-224.2 158,-338.5 m -5002.7,3743.6 c -76.9,18.5 -154.1,35.8 -231.6,51.9 0.1,0.4 0.2,0.7 0.3,1.1 40.6,148.9 5.1,170.7 -53.8,206.8 -4.3,2.6 -8,4.6 -11,6.1 -7.7,-11.1 -20.9,-34.7 -38.7,-84 -12.4,-34.1 -24.7,-68.2 -37,-102.3 -78.8,14.8 -158,28.3 -237.4,40.5 17.1,47.6 34.3,95.1 51.4,142.6 33.6,92.6 80.9,191.8 176.7,229.7 82.2,-14.2 163.9,-29.8 245.1,-46.8 149.6,-102.3 190.5,-237.6 136,-445.6 m -884.3,157.3 c -78.8,9.1 -157.9,17.1 -237.1,23.7 26.3,125.6 62.5,258.8 111.9,391.8 81.8,-6.9 163.5,-15.1 244.5,-24.6 -53.3,-131.1 -91.7,-264.5 -119.3,-390.9"
         style="fill:#bbdba6;fill-opacity:1;fill-rule:nonzero;stroke:none"
         id="path72" /><path
         d="m 11082.7,33291.9 c -0.1,0.1 -0.3,0.2 -0.4,0.3 38.1,69.5 77.4,138.5 117.7,206.7 5.1,-3.2 10.3,-6.5 15.4,-9.9 -45.3,-65 -89.6,-130.8 -132.7,-197.1"
         style="fill:#bbdba6;fill-opacity:1;fill-rule:nonzero;stroke:none"
         id="path74" /><path
         d="m 12990.6,35281.4 c -28.7,59.1 -49.6,127 -57.7,205.2 80.3,63.7 161.6,125.6 244.6,186 l -0.2,-1.1 c -19,-102.8 -13.8,-185.1 11.3,-254 -67,-44.4 -132.9,-89.7 -198,-136.1 m 2898.6,1243.5 c -18.6,113.5 -48.5,227.6 -89.7,343.3 77.2,17.7 154.9,34.2 233,49.4 40.1,-117.9 69.7,-234.9 89,-351.6 -77.4,-12.4 -154.9,-26.2 -232.3,-41.1"
         style="fill:#bbdba6;fill-opacity:1;fill-rule:nonzero;stroke:none"
         id="path76" /><path
         d="m 11415.5,33762.7 c -12.5,7.4 -24.5,15.5 -36,24 43.5,66.2 88,131.6 133.6,196.2 17,-13.8 35.5,-23.9 52.5,-31.2 -51.1,-62.2 -101.1,-125.3 -150.1,-189 m 313.3,510.6 c 120.1,153.5 246.2,302 378,445.1 50.6,13.7 98,20.5 142.5,20.5 21,0 41.3,-1.5 61,-4.5 -119.5,-108.5 -235.2,-220.5 -346.5,-335.8 -52.9,-29.3 -106.1,-57.3 -159.3,-85.3 -25.6,-13.5 -50.8,-26.8 -75.7,-40"
         style="fill:#bbdba6;fill-opacity:1;fill-rule:nonzero;stroke:none"
         id="path78" /><path
         d="m 17412.6,37050.1 c -3977.2,0 -7213,-3235.8 -7213,-7213.1 0,-3977.3 3235.8,-7213 7213,-7213 544.2,0 1086.1,60.7 1610.7,180.5 577,145.1 916.1,248.2 1397.4,474.8 2555.1,1174.6 4205,3748.4 4205,6557.7 0,3977.3 -3235.8,7213.1 -7213.1,7213.1 M 19070,22610 h 0.5 -0.5 m -1657.4,-386 c -4197.8,0 -7613.02,3415.2 -7613.02,7613 0,4197.9 3415.22,7613.1 7613.02,7613.1 4197.9,0 7613.1,-3415.2 7613.1,-7613.1 0,-2965.1 -1741.4,-5681.5 -4436.3,-6920.4 -507.2,-238.7 -878.5,-351.7 -1470.7,-500.6 l -4.1,-1 c -554.5,-126.8 -1127.1,-191 -1702,-191"
         style="fill:#371a45;fill-opacity:1;fill-rule:nonzero;stroke:none"
         id="path80" /><path
         d="m 17359.5,22955.9 c -687.3,0 -1367.8,95.9 -2022.5,281.1 20.7,78.4 46.2,157.3 76.6,236.6 257.5,671.9 484.4,1326.2 668.8,1926.7 419.9,-73.4 847.2,-110.9 1277,-110.9 1112.2,0 2240.8,251.1 3303.4,781.4 114,56.8 225.9,116.2 335.6,178 111.5,-158.2 182.4,-345.1 200.8,-540.4 l 36.6,-152.2 c 50.3,-202.4 102.4,-411.7 164.5,-609.8 66.3,-211.5 224.3,-404.4 438.1,-480.1 -361.9,-274.2 -754.4,-519.1 -1175.6,-729.2 -1062.4,-530 -2191.4,-781.2 -3303.3,-781.2 m -3592.3,926.1 c -1138.4,627.7 -2122.4,1560 -2816.4,2751.3 -264.6,531.7 -465.7,1100.8 -592.8,1696.5 137.5,-100.2 271.5,-203.6 403.6,-305.4 374.7,-289.1 717.5,-434.2 1023.5,-434.2 62.2,0 122.8,6 181.9,18 167.3,-177 342.6,-344.7 524.7,-502.7 -18.7,-34.9 -35.7,-71.1 -46.8,-109.7 -168.5,-589.5 23.3,-1809.5 627.6,-2225.3 339.8,-213.6 552.9,-540.3 694.7,-888.5 m 9444.1,1942.5 c 30.5,229.8 23.7,456.3 -18.7,651.5 -83.5,394.9 -167.9,718.9 -265.4,1019.5 -26.2,80.8 -50,159.9 -71.4,237.6 57,63.1 112.8,127.1 167.4,192 -37.1,-210.4 3.3,-422.1 22.1,-520 l 3.3,-17.7 8.5,-15.9 c 15.3,-28.6 27.4,-78.1 39.1,-125.9 27.2,-111 58,-236.7 170.8,-281.5 23.2,-9.2 47.3,-13.8 72.4,-13.8 50.3,0 104.3,18.6 161.4,55.5 183.2,118.7 372.2,380.5 232.3,953.6 -4.9,20.2 -9.6,42.5 -14.6,65.8 -29.4,138.7 -66,311.3 -199.3,365.4 -20.6,8.4 -46.5,14.9 -77,14.9 -15.9,0 -33.1,-1.7 -51.5,-6 529.5,744.1 915.1,1577.8 1141.2,2455 20.4,-91.3 39,-182.7 55.8,-274.2 25.1,-244.5 38,-492.3 38,-743.3 0,-584.5 -71.5,-1159 -207.6,-1712.6 -262.8,-826.5 -669.6,-1606.6 -1206.8,-2299.9"
         style="fill:#1384be;fill-opacity:1;fill-rule:nonzero;stroke:none"
         id="path82" /><path
         d="m 22035.7,24669.3 c -205.6,0 -353.4,170.1 -409.1,348 -60,191.3 -111.2,397.1 -160.7,596.1 l -31.5,126.3 c -22.9,226.5 -104.2,443.3 -230.8,629 545.6,330.7 1034.9,722.9 1463.6,1163.3 11,-36.3 22.5,-72.8 34.4,-109.7 96.2,-296.5 176.1,-603.5 259.2,-996.1 64.3,-295.7 32.3,-684.7 -101.9,-1023 -233.1,-258.5 -485.9,-502 -757.8,-728.3 -22.4,-3.8 -44.2,-5.6 -65.4,-5.6"
         style="fill:#4f9c1b;fill-opacity:1;fill-rule:nonzero;stroke:none"
         id="path84" /><path
         d="m 15109.7,23305.3 c -353.4,112.3 -698.6,250.9 -1031.9,414.8 -151.1,474.2 -402.6,951.6 -875,1248.4 -503.1,346.3 -680.6,1435 -529.9,1962.1 1.6,5.7 3.7,11.6 6.1,17.7 925.5,-750.6 2016,-1263.1 3169.2,-1503.1 -181.5,-588.5 -403.9,-1228.9 -656,-1886.8 -32.5,-84.7 -60,-169.1 -82.5,-253.1 m -3342.1,4522.5 c -248.3,5.6 -536.8,134.1 -861.2,384.3 -197.4,152.2 -398.9,307.6 -611.6,452.7 -62.7,381.7 -95.2,773.1 -95.2,1172.2 0,261.5 14,519.8 41.2,774.1 121.7,-411.7 281,-818.6 479.5,-1216.3 33.4,-67 67.4,-133.5 102.6,-199.1 268.1,-499.7 586.2,-956.8 944.7,-1367.9"
         style="fill:#4f9c1b;fill-opacity:1;fill-rule:nonzero;stroke:none"
         id="path86" /><path
         d="m 23356.9,27195.9 c -11.2,27.9 -22.8,75 -30.4,106.1 -13.6,55.5 -27.6,112.7 -51.3,163.4 -65.5,355.9 -18.9,581.4 142.1,689.3 5.9,4 10.8,6.8 14.7,8.9 22.8,-38 43.9,-137.1 54.6,-187.6 5.5,-25.8 10.7,-50.5 16.2,-72.8 85.8,-351.5 41.7,-586.5 -131,-698.4 -5.7,-3.7 -10.6,-6.6 -14.9,-8.9"
         style="fill:#4f9c1b;fill-opacity:1;fill-rule:nonzero;stroke:none"
         id="path88" /><path
         d="m 21838.4,24466.3 c -213.8,75.7 -371.8,268.6 -438.1,480.1 -62.1,198.1 -114.2,407.4 -164.5,609.8 l -36.6,152.2 c -18.4,195.3 -89.3,382.2 -200.8,540.4 69.2,39 137.7,79 205.2,119.9 126.6,-185.7 207.9,-402.5 230.8,-629 l 31.5,-126.3 c 49.5,-199 100.7,-404.8 160.7,-596.1 55.7,-177.9 203.5,-348 409.1,-348 21.2,0 43,1.8 65.4,5.6 -85.7,-71.3 -173.2,-140.8 -262.7,-208.6 m 1020.5,936.9 c 134.2,338.3 166.2,727.3 101.9,1023 -83.1,392.6 -163,699.6 -259.2,996.1 -11.9,36.9 -23.4,73.4 -34.4,109.7 64.2,66 127.1,133 188.6,201.1 21.4,-77.7 45.2,-156.8 71.4,-237.6 97.5,-300.6 181.9,-624.6 265.4,-1019.5 42.4,-195.2 49.2,-421.7 18.7,-651.5 -111.8,-144.3 -229.4,-284.9 -352.4,-421.3"
         style="fill:#4a742d;fill-opacity:1;fill-rule:nonzero;stroke:none"
         id="path90" /><path
         d="m 15337,23237 c -76.1,21.6 -151.8,44.3 -227.3,68.3 22.5,84 50,168.4 82.5,253.1 252.1,657.9 474.5,1298.3 656,1886.8 77.7,-16.2 155.9,-31.2 234.2,-44.9 -184.4,-600.5 -411.3,-1254.8 -668.8,-1926.7 -30.4,-79.3 -55.9,-158.2 -76.6,-236.6 m -1259.2,483.1 c -104.6,51.4 -208.4,105.5 -310.6,161.9 -141.8,348.2 -354.9,674.9 -694.7,888.5 -604.3,415.8 -796.1,1635.8 -627.6,2225.3 11.1,38.6 28.1,74.8 46.8,109.7 61.7,-53.6 124,-105.8 187.3,-157.2 -2.4,-6.1 -4.5,-12 -6.1,-17.7 -150.7,-527.1 26.8,-1615.8 529.9,-1962.1 472.4,-296.8 723.9,-774.2 875,-1248.4 m -2292.7,3870.1 c -306,0 -648.8,145.1 -1023.5,434.2 -132.1,101.8 -266.1,205.2 -403.6,305.4 -23.7,110.8 -44.7,222.4 -63.2,335 212.7,-145.1 414.2,-300.5 611.6,-452.7 324.4,-250.2 612.9,-378.7 861.2,-384.3 65.1,-74.8 131.6,-147.9 199.4,-219.6 -59.1,-12 -119.7,-18 -181.9,-18"
         style="fill:#4a742d;fill-opacity:1;fill-rule:nonzero;stroke:none"
         id="path92" /><path
         d="m 23339.4,26950.3 c -25.1,0 -49.2,4.6 -72.4,13.8 -112.8,44.8 -143.6,170.5 -170.8,281.5 -11.7,47.8 -23.8,97.3 -39.1,125.9 l -8.5,15.9 -3.3,17.7 c -18.8,97.9 -59.2,309.6 -22.1,520 129.2,153.5 251.8,311.8 367.5,474.4 18.4,4.3 35.6,6 51.5,6 30.5,0 56.4,-6.5 77,-14.9 133.3,-54.1 169.9,-226.7 199.3,-365.4 5,-23.3 9.7,-45.6 14.6,-65.8 139.9,-573.1 -49.1,-834.9 -232.3,-953.6 -57.1,-36.9 -111.1,-55.5 -161.4,-55.5 m 92.6,1213.3 c -3.9,-2.1 -8.8,-4.9 -14.7,-8.9 -161,-107.9 -207.6,-333.4 -142.1,-689.3 23.7,-50.7 37.7,-107.9 51.3,-163.4 7.6,-31.1 19.2,-78.2 30.4,-106.1 4.3,2.3 9.2,5.2 14.9,8.9 172.7,111.9 216.8,346.9 131,698.4 -5.5,22.3 -10.7,47 -16.2,72.8 -10.7,50.5 -31.8,149.6 -54.6,187.6"
         style="fill:#4a742d;fill-opacity:1;fill-rule:nonzero;stroke:none"
         id="path94" /><path
         d="m 24587.7,30580.3 c -16.8,91.5 -35.4,182.9 -55.8,274.2 4.8,18.4 9.5,37.1 14.1,55.6 16.4,-109.2 30.3,-219.2 41.7,-329.8"
         style="fill:#779ebe;fill-opacity:1;fill-rule:nonzero;stroke:none"
         id="path96" /><path
         d="m 10950.8,26633.3 c -43.8,75.3 -86.4,151.4 -127.9,228.7 -35.2,65.7 -69.2,132.2 -102.6,199.1 -418.6,838.9 -663.1,1719.1 -747.66,2599.4 -60.37,628.6 -39.22,1257.8 59.46,1871.4 49.3,-308.4 118.7,-616 208.7,-920.8 -27.2,-254.3 -41.2,-512.6 -41.2,-774.1 0,-399.1 32.5,-790.5 95.2,-1172.2 18.5,-112.6 39.5,-224.2 63.2,-335 127.1,-595.7 328.2,-1164.8 592.8,-1696.5 m 13467.3,1491.1 c 136.1,553.6 207.6,1128.1 207.6,1712.6 0,251 -12.9,498.8 -38,743.3 -11.4,110.6 -25.3,220.6 -41.7,329.8 52.1,208.5 95.1,419.3 129,632 185.7,-1157.4 89.6,-2327.8 -256.9,-3417.7"
         style="fill:#371a45;fill-opacity:1;fill-rule:nonzero;stroke:none"
         id="path98" /><path
         d="m 22958.2,13016.9 c 0,0 3031,-789.9 3139.1,-1979 94.3,-1036.8 -1042.3,-4532.9 -1709.8,-4917 -486.9,-280.1 -1954.9,233.6 -1954.9,233.6 l 525.6,6662.4"
         style="fill:#ffffff;fill-opacity:1;fill-rule:nonzero;stroke:none"
         id="path100" /><path
         d="m 23784.5,6222.2 c -241.6,0 -487.3,47.1 -700.2,106 -2.9,137.9 1.7,254.6 5.3,347.5 0.2,4.2 0.4,8.3 0.5,12.3 4.8,-11.3 9.9,-22.2 15.3,-32.7 22.8,-43.3 52.1,-87.6 91.7,-123.5 38.9,-36 84.3,-64.4 130.5,-83.7 77.7,-31.2 153.1,-40.3 223.1,-40.3 13.9,0 27.6,0.3 41.1,1 81.3,4.6 157,19.1 229.2,38.3 17.3,4.7 34.5,9.6 51.5,14.8 -11.6,-77.8 -22.1,-156.5 -30.1,-236.8 0,-0.7 -0.1,-1.3 -0.2,-1.9 -19.2,-0.7 -38.4,-1 -57.7,-1"
         style="fill:#b9afbe;fill-opacity:1;fill-rule:nonzero;stroke:none"
         id="path102" /><path
         d="m 23782.1,5922.5 c -711,0 -1411.1,346.6 -1453.1,367.7 -73.9,37.2 -103.7,127.4 -66.5,201.3 37.2,74 127.3,103.9 201.3,66.7 13.2,-6.6 1326.4,-655.3 2034.5,-132.3 583.4,431 1508.3,3591.2 1449.3,4603.3 -39.2,670.3 -1301.6,1231.3 -1784.7,1390.8 -78.6,26 -121.4,110.8 -95.4,189.5 25.9,78.7 110.8,121.5 189.4,95.5 78.8,-26 1931.2,-647.9 1990.2,-1658.3 61.6,-1056.8 -844.7,-4325.9 -1570.5,-4862.1 -262.8,-194.1 -579.7,-262.1 -894.5,-262.1"
         style="fill:#371a45;fill-opacity:1;fill-rule:nonzero;stroke:none"
         id="path104" /><path
         d="m 19468.9,12631.1 c 0,0 132.3,-1072.5 -332.6,-337 -424.3,671.8 -952.4,1791.9 -1418.6,3618.2 -4,14.9 -7.9,30.1 -11.8,45 0,0 -210,18.3 -467.5,147.1 -607.2,303.4 -477.1,1485.8 -359.7,1887.9 137.9,473.6 464,345.7 464,345.7 114.4,187.2 340.1,286.8 720.3,281.1 713.6,-10.5 859,-587.5 859,-587.5 654.3,-1969.1 1451.4,-3182.6 1925.9,-3787.2 251,-320.8 411.6,-470.1 411.6,-470.1 l -1790.6,-1143.2"
         style="fill:#ffffff;fill-opacity:1;fill-rule:nonzero;stroke:none"
         id="path106" /><path
         d="m 19192.6,12438.2 c -4.3,3.6 -8.8,7.1 -13.6,10.3 -25.7,17.3 -54.8,25.5 -83.6,25.5 -21,0 -41.8,-4.4 -61.1,-12.9 -405,685.4 -887.1,1768.6 -1316.6,3451.2 156.2,38 386.3,109.6 507.6,217.8 303.8,271.5 358.8,897.1 358.8,897.1 125.8,-603.3 0,-956.4 -146.6,-1155.5 -158,-213.9 -206.5,-490.2 -114.4,-739.8 134,-362.8 302.9,-757.4 570.5,-1012.3 252.8,-240.8 546.7,-338.1 838.5,-338.1 170.3,0 339.9,33.1 500.4,90.2 80,-154.3 168.4,-304.5 265.2,-450 l -28.6,6.7 -207,48 -127.3,107.8 c -92.9,-98.8 -202.1,-211.1 -314,-332.5 -63,-68.9 -127.3,-140.9 -189.4,-214.8 -48.9,-58.4 -96.9,-117.8 -142.7,-178.5 -99.5,-132 -198.7,-272.1 -296.1,-420.2"
         style="fill:#b9afbe;fill-opacity:1;fill-rule:nonzero;stroke:none"
         id="path108" /><path
         d="m 17515.1,15996.7 c -11.5,3 -18.6,5.3 -20.6,6.1 7,-2.2 13.8,-4.2 20.6,-6.1 m -21.8,6.4 c -73.3,17.8 -138.8,43 -197.4,74 72.1,-32.6 139.2,-56.5 197.4,-74"
         style="fill:#56a38d;fill-opacity:1;fill-rule:nonzero;stroke:none"
         id="path110" /><path
         d="m 17644.8,15981.5 c -59.3,0 -104.8,8.9 -129.7,15.2 -6.8,1.9 -13.6,3.9 -20.6,6.1 -0.4,0.1 -0.6,0.2 -0.6,0.2 -0.2,0 -0.4,0.1 -0.6,0.1 -58.2,17.5 -125.3,41.4 -197.4,74 -522.5,275.6 -493.2,1005.2 -493.2,1005.2 0,0 354,-496.7 875.8,-523.5 59.2,-3 114.3,-4.3 165.6,-4.3 405.1,0 573,83.7 573,83.7 -248.8,-564.7 -581.7,-656.8 -772.3,-656.7"
         style="fill:#b9afbe;fill-opacity:1;fill-rule:nonzero;stroke:none"
         id="path112" /><path
         d="m 21183.6,13758.2 c -36.2,0 -72.4,12.6 -101.7,38.3 -52.8,46.2 -1303.1,1167 -2306.5,4186.1 l -3.2,11 c -4.8,17.8 -131,462.3 -711.6,471 -269.1,3.5 -454.6,-49.8 -551.1,-159.7 -103,-117.3 -131.3,-323.4 -86.6,-630.1 37.3,-256 182.8,-402.9 297.9,-392.2 135.5,12.7 271.6,259.5 250,771.5 -3.6,85.3 62.6,157.3 147.9,160.9 84.5,3.6 157.3,-62.6 161,-147.9 32.3,-765.7 -252.6,-1066.3 -530.1,-1092.3 -301.8,-28.7 -574.1,253.5 -632.6,655.5 -59.4,407.3 -8.5,686.5 160.1,878.6 161.3,183.7 418.6,270.9 788.1,264.8 652.9,-9.8 941.7,-457.6 1005.3,-698.5 973.2,-2925.8 2203.1,-4035.5 2215.4,-4046.4 63.9,-56.5 70.2,-154.1 13.8,-218.1 -30.6,-34.7 -73.2,-52.5 -116.1,-52.5"
         style="fill:#371a45;fill-opacity:1;fill-rule:nonzero;stroke:none"
         id="path114" /><path
         d="m 19941.7,11205.8 c -26.2,0 -52.8,6.7 -77.1,20.9 -53.2,30.9 -1303.1,794.8 -2283.3,4594.6 -96.3,20.2 -245.8,61.7 -412,144.8 -680.8,340.4 -586.6,1563.6 -439.2,2069.3 61.6,211.4 166.5,354.7 311.5,426 176.8,86.9 339.7,27.5 357.7,20.4 79.5,-31.1 118.7,-120.8 87.5,-200.3 -30.8,-78.6 -118.7,-117.8 -197.6,-88.5 -5.6,1.8 -59.5,17.9 -114.4,-10.7 -61.6,-32.1 -112.7,-112.8 -147.8,-233.4 -117.3,-402.2 -203.1,-1464.4 280.6,-1706.2 224.8,-112.5 410.7,-131.3 412.6,-131.5 l 108.4,-10.3 27.3,-105.7 c 944.1,-3727.6 2153.1,-4494.6 2165.2,-4501.9 72.6,-43.9 96.8,-138.4 53.6,-211.4 -28.9,-48.8 -80.2,-76.1 -133,-76.1"
         style="fill:#371a45;fill-opacity:1;fill-rule:nonzero;stroke:none"
         id="path116" /><path
         d="m 17813.6,15800.2 c -40.7,0 -82.9,2.8 -126.4,8.3 -82.2,10.4 -140.4,85.4 -129.9,167.6 10.4,82.2 85.5,140.1 167.7,130 157.6,-20 275.8,11.1 361.8,95 170.9,167 234.6,555.3 179.3,1093.5 -41.1,399.9 -176.6,486.7 -177.9,487 -80.5,19.4 -130.1,100.5 -110.6,181 19.4,80.6 100.4,130.1 181,110.6 56.3,-13.6 340.7,-113.6 406,-747.9 66.7,-649.4 -23.5,-1099.8 -268.2,-1338.8 -126.9,-123.9 -288.9,-186.3 -482.8,-186.3"
         style="fill:#371a45;fill-opacity:1;fill-rule:nonzero;stroke:none"
         id="path118" /><path
         d="m 24138,9472.7 c -72.9,-151.3 -128.2,-307.6 -174.4,-467.6 -145.5,-499.2 -203,-1031.1 -431.3,-1535.8 -56.7,-125.1 -125.5,-233.4 -196.7,-324.4 -22.2,-28.6 -44.4,-55.3 -66.6,-80.7 -168.1,-190.7 -325.7,-285.9 -325.7,-285.9 -0.9,-49.8 -4.5,-113.2 -6.8,-188.9 -10,-310.8 -6.4,-831.4 217.9,-1480.6 16.3,-48 33.5,-96.5 53,-145.4 150.4,-390.1 59.4,-1652.8 -105.1,-1940.9 -472.5,-830.9 -1656.8,-704.5 -1993.9,-137.3 -304.9,514.7 -177.2,1513.2 -119.6,1864.3 13.1,80.2 22.6,126.4 22.6,126.4 -312.6,654.3 -581.2,1532.7 -581.2,2191 0,0 -84.3,-14 -198.5,-15.4 l 0.5,-21.7 c -44.9,-407.3 30.8,-1102.8 178.9,-1738.4 16.3,-70.2 33.6,-140 51.7,-208.4 87.4,-329.8 -74.8,-1372.8 -510.6,-1891.1 -505.2,-601.6 -1612,-391.4 -1834,57.5 -267.3,539.2 82,1444.4 215.6,1752.9 29.9,68.5 49,107 49,107 -557.3,1318.8 -589.9,2446.9 -491.1,3586.8 155.8,1786.9 866.7,3193.7 1597,4162.3 45.8,60.7 93.8,120.1 142.7,178.5 62.1,73.9 126.4,145.9 189.4,214.8 111.9,121.4 221.1,233.7 314,332.5 l 127.3,-107.8 207,-48 3435.1,-800.2 29.9,-403.2 13.2,-180.7 28.5,-388.3 72.5,-975.5 43,-583.5 35.8,-479.3 10.9,-145"
         style="fill:#ffffff;fill-opacity:1;fill-rule:nonzero;stroke:none"
         id="path120" /><path
         d="m 19068.4,2970 c -54.1,0 -109.4,3.3 -165.4,10.1 -303.4,36.4 -570.9,174.4 -650.8,335.6 -81.4,164.5 -94.8,380 -70.9,605.3 36.5,-132.8 105.9,-259.1 223,-365.7 172.7,-157.5 387.7,-232.4 602,-232.4 323.9,0 646.4,171.2 819.3,487.3 284,519.9 367.5,1375.7 388.9,1680.1 30.4,-150.6 65,-300.6 103.6,-446.1 71,-268.4 -65.4,-1261.5 -480.8,-1756 C 19665.8,3083.9 19386,2970 19068.4,2970"
         style="fill:#b9afbe;fill-opacity:1;fill-rule:nonzero;stroke:none"
         id="path122" /><path
         d="m 22049.8,2579.4 c -350.5,0 -676,152.8 -812.2,382.2 -276.4,465.6 -158.2,1407.6 -102.4,1753.2 l 245.9,-58.5 c 76.9,-40.7 162,-77.4 255.6,-107.1 -144.1,-34.8 -309.9,-164.6 -324.8,-573.6 -15.3,-407.2 50.2,-860.8 594.5,-932.8 80.2,-10.5 155.5,-15.6 225.7,-15.6 1011.3,0 1014.8,1046.3 964.9,1775.3 89.1,-441.1 4.7,-1478.4 -124.8,-1705.9 -185,-325.1 -517.2,-513.6 -911.3,-517.2 -3.7,0 -7.4,0 -11.1,0"
         style="fill:#b9afbe;fill-opacity:1;fill-rule:nonzero;stroke:none"
         id="path124" /><path
         d="m 21888.2,4491.6 c -4,0 -8.2,0.4 -12.4,1 -85.3,13.7 -164.9,33 -239.1,56.6 34.1,8.2 67,11.1 96.4,11.1 34.7,0 64.5,-4 85.6,-8 l -437.6,104 c -86.9,46 -163.4,97.2 -230.2,149.8 4.4,24.4 7.2,38.2 7.4,39.5 l 10.1,49.3 -21.7,45.4 c -345.3,722 -543.4,1465.3 -543.4,2039.3 0,82.8 -67.1,150 -150,150 -33.4,0 -64.4,-11 -89.3,-29.5 -22.6,42.1 -64.9,72.7 -116,78.3 -5.3,0.6 -10.6,0.8 -15.8,0.8 -71.5,0 -134.3,-50.9 -147.8,-121.9 -10.5,2.2 -21.4,4.5 -32.7,6.9 -121.9,28.9 -244.6,59.7 -365.3,91.8 -392.7,113.1 -908.4,310.1 -1232.2,622.7 0,0 6.1,-76.5 50.4,-199.3 -56.8,33.7 -101.2,66.8 -130.8,98.8 -56.8,61.6 -66.5,183.9 -59.1,302.9 5.2,83.7 74.3,138.1 147,138.1 33.1,0 67.1,-11.3 96,-36.3 227.4,-196.6 494.1,-304 752.3,-382.4 384.7,-116.8 970,-163.1 1373.5,-181.5 224.5,-10.2 387,-216.1 346.5,-437.2 -60.1,-328.3 -104.5,-808.3 1.6,-1299.7 123.7,-573.2 577.1,-993.1 887.7,-1159.2 65.5,-35 37.6,-131.3 -31.1,-131.3 m -35.9,52.8 v 0 0 0 0 l -5.3,1.3 c 3.3,-0.8 5.1,-1.3 5.3,-1.3 v 0 0 0 m -5.3,1.3 v 0 c -4.8,1.8 -13.9,3.9 -26.2,6.1 l 26.2,-6.1"
         style="fill:#b9afbe;fill-opacity:1;fill-rule:nonzero;stroke:none"
         id="path126" /><path
         d="m 21847,4545.7 -26.2,6.1 c 12.3,-2.2 21.4,-4.3 26.2,-6.1"
         style="fill:#8f889d;fill-opacity:1;fill-rule:nonzero;stroke:none"
         id="path128" /><path
         d="m 21852.3,4544.4 v 0 0 m 0,0 v 0 0 m 0,0 v 0 0 m 0,0 c -0.2,0 -2,0.5 -5.3,1.3 l 5.3,-1.3"
         style="fill:#8f889d;fill-opacity:1;fill-rule:nonzero;stroke:none"
         id="path130" /><path
         d="m 21636.7,4549.2 c -93.6,29.7 -178.7,66.4 -255.6,107.1 l 437.6,-104 c -21.1,4 -50.9,8 -85.6,8 -29.4,0 -62.3,-2.9 -96.4,-11.1"
         style="fill:#8c7b94;fill-opacity:1;fill-rule:nonzero;stroke:none"
         id="path132" /><path
         d="m 20130.9,5979.5 c -133.3,202.1 -316.2,371.3 -585.7,518.2 -696.1,379.5 -949.4,828.7 -1040.6,1081.7 238,-141.2 693.5,-293.4 1181.8,-423.4 143.2,-41.2 270,-71.3 365.3,-91.8 10.9,-2.5 21.7,-5.1 32.5,-7.6 -0.6,-3.7 -1.2,-7.3 -1.6,-11.1 -29,-266.3 -9.4,-651.2 48.3,-1066"
         style="fill:#b9afbe;fill-opacity:1;fill-rule:nonzero;stroke:none"
         id="path134" /><path
         d="m 20084.2,7056.6 c -10.8,2.5 -21.6,5.1 -32.5,7.6 11.3,-2.4 22.2,-4.7 32.7,-6.9 -0.1,-0.2 -0.1,-0.5 -0.2,-0.7 m -397.8,99.4 c -488.3,130 -943.8,282.2 -1181.8,423.4 -44.3,122.8 -50.4,199.3 -50.4,199.3 323.8,-312.6 839.5,-509.6 1232.2,-622.7"
         style="fill:#8c7b94;fill-opacity:1;fill-rule:nonzero;stroke:none"
         id="path136" /><path
         d="m 19067.4,2670.1 c -65.8,0 -132.6,4 -200.2,12.1 -417.2,50.1 -755.8,241.9 -883.8,500.5 -313.4,633 114.4,1663.8 235.4,1930 -572.1,1387.3 -567.6,2548 -476.4,3596.4 127.7,1467.3 518,2642.6 1228.4,3698.6 46.2,68.8 139.4,87.1 208.2,40.8 68.8,-46.3 87,-139.5 40.7,-208.2 C 18538.9,11228.1 18164.4,10097.8 18041.3,8683 17952,7657.6 17948.4,6522 18521,5167.6 l 26.6,-63 -30.1,-61.5 c -155.1,-316.2 -505,-1243 -265.3,-1727.4 79.9,-161.2 347.4,-299.2 650.8,-335.6 384.3,-46.4 733.6,69 934.3,308.1 415.4,494.5 551.8,1487.6 480.8,1756 -189.2,714.7 -286.1,1537.6 -235.5,2001.3 9,82.4 83.6,141.5 165.4,132.9 82.3,-9 141.8,-83 132.9,-165.4 -46.3,-424.2 49.2,-1219.9 227.2,-1892 95.2,-359.6 -67.8,-1462.3 -541,-2025.8 -229.1,-272.7 -593.3,-425.1 -999.7,-425.1"
         style="fill:#371a45;fill-opacity:1;fill-rule:nonzero;stroke:none"
         id="path138" /><path
         d="m 19691.4,13072.2 c -31.9,-82.4 -69.9,-159.5 -108.5,-235.8 -39.4,-75.6 -80,-149.7 -122.3,-222 -42.4,-72.2 -83.9,-144.4 -131.2,-211.3 -47.1,-67.1 -96.3,-131.6 -154.6,-188.6 l -1.9,-1.8 c -60.2,-58.8 -156.6,-57.6 -215.3,2.6 -45.3,46.4 -54.8,114.6 -29.3,170.2 37.1,80.4 87.8,150.2 142.3,215.9 54.5,65.8 116.8,124.7 179.4,182.7 62.6,58 128,113.2 195.4,166.4 68.2,52.5 137.5,103.5 213.1,149.3 10.7,6.4 24.7,3 31.1,-7.7 3.8,-6.2 4.2,-13.6 1.8,-19.9"
         style="fill:#371a45;fill-opacity:1;fill-rule:nonzero;stroke:none"
         id="path140" /><path
         d="m 23824,9717 -115.7,-321.7 8.7,147.5 c 28.8,59.4 63.7,117.9 107,174.2"
         style="fill:#ffffff;fill-opacity:1;fill-rule:nonzero;stroke:none"
         id="path142" /><path
         d="m 22049.6,2279.4 c -459.7,0 -878.6,206.7 -1069.9,529 -362,609.6 -172.7,1786.8 -124.9,2047.2 -350.8,747.2 -551.5,1518.9 -551.5,2124 0,82.8 67.2,150 150,150 82.9,0 150,-67.2 150,-150 0,-574 198.1,-1317.3 543.4,-2039.3 l 21.7,-45.4 -10.1,-49.3 c -2.6,-13 -261.4,-1310.2 79.3,-1884 136.2,-229.4 461.7,-382.2 812.2,-382.2 3.7,0 7.4,0 11.1,0 394.1,3.6 726.3,192.1 911.3,517.2 141.5,248.7 229.3,1465.2 95.2,1812.5 -315.5,817.3 -289.9,1466.5 -277.5,1778.5 1.4,35.2 2.6,66.3 3.2,93.3 l 1.7,82.6 70.6,42.7 c 3.1,1.8 345.1,214.9 530.2,624.6 145.5,322 205.1,713.5 262.8,1092.2 70.9,465.1 137.8,904.5 353.9,1233.5 45.5,69.3 138.4,88.5 207.7,43 69.3,-45.5 88.5,-138.5 43.1,-207.7 -180.2,-274.2 -242.3,-682.2 -308.1,-1114 -60.7,-398.7 -123.5,-811 -286,-1170.5 -171.7,-380 -449.3,-615.5 -578.5,-710.3 -0.3,-6.9 -0.6,-14 -0.9,-21.3 -12.4,-314.2 -35.5,-899.1 257.7,-1658.5 168.6,-436.7 68.2,-1748.2 -114.4,-2069.1 -239.3,-420.3 -665.5,-664 -1169.3,-668.7 -4.6,0 -9.4,0 -14,0"
         style="fill:#371a45;fill-opacity:1;fill-rule:nonzero;stroke:none"
         id="path144" /><path
         d="m 20450.8,6902.7 c -89.6,13 -178.6,30 -267.2,48.6 -88.2,20.8 -176,43.1 -263.2,67.9 -174.1,51.5 -345.5,112.4 -513.2,183.5 -167.9,69.9 -332.4,148.8 -490.3,240.1 -78.5,46.3 -156.3,93.8 -230.2,147.5 -74.1,53.5 -146.6,108 -211.6,174.8 -6.9,7 -6.8,18.4 0.3,25.3 5.9,5.7 14.6,6.6 21.4,2.7 l 1.3,-0.8 c 152.3,-87.3 318,-153.6 482.4,-214.8 164.8,-61.6 332.8,-113.9 501.7,-162.3 168.3,-49.8 339.8,-89.1 509.3,-134.3 85.3,-20.8 170.8,-41.4 255.5,-64.8 85.6,-20.6 170.7,-42.7 255.3,-68.8 l 3.5,-1.1 c 66,-20.3 103.1,-90.4 82.7,-156.5 -18.4,-59.8 -77.6,-95.8 -137.7,-87"
         style="fill:#371a45;fill-opacity:1;fill-rule:nonzero;stroke:none"
         id="path146" /><path
         d="m 17440.9,12027 c -304.3,0 -908.3,120.5 -1180.6,1019.7 -216,712.8 253.4,1334.1 667.6,1882.2 278.7,368.9 542,717.3 542,1022 0,69 55.9,125 125,125 69,0 125,-56 125,-125 0,-388.5 -287.8,-769.5 -592.6,-1172.8 -396.7,-525 -806.8,-1067.8 -627.8,-1659 300.6,-992.3 1036.1,-839.4 1067.4,-832.5 67.2,14.9 134.1,-26.8 149.5,-93.9 15.4,-67 -25.9,-133.8 -92.8,-149.6 -2.7,-0.6 -73.3,-16.1 -182.7,-16.1"
         style="fill:#371a45;fill-opacity:1;fill-rule:nonzero;stroke:none"
         id="path148" /><path
         d="m 18576.7,9050.2 c 164.4,-86.5 350.2,-180.3 551.8,-276.3 -124.1,48.4 -237.9,94.7 -338.9,136.8 -80.6,34 -152.7,81.5 -212.9,139.5"
         style="fill:#ffffff;fill-opacity:1;fill-rule:nonzero;stroke:none"
         id="path150" /><path
         d="m 21902.7,4526.4 c -107.4,-19.9 -216.3,-16.2 -324.7,0.7 -108.1,17.6 -215.6,50.3 -316.6,99.7 -100.7,49 -199.3,109.9 -280.2,190.1 -84.1,77.2 -151.4,171 -201.7,271.5 -30.8,61.8 -5.8,136.8 55.9,167.6 49.9,25 108.6,13.4 145.5,-24.6 l 11.6,-12.1 c 33.2,-34.1 59,-72.7 89.3,-107.4 15.4,-17.2 30.4,-34.5 44.7,-52.5 13.7,-18.7 31.6,-33.2 46.4,-50.7 61.7,-67.9 129.3,-131.2 204.1,-188.4 74.5,-57.6 156.7,-108.2 245,-150.9 87.8,-43.7 182.6,-79.8 280.6,-107.3 l 1.7,-0.4 c 9.6,-2.7 15.2,-12.7 12.5,-22.3 -1.9,-6.9 -7.5,-11.7 -14.1,-13"
         style="fill:#371a45;fill-opacity:1;fill-rule:nonzero;stroke:none"
         id="path152" /><path
         d="m 19164.2,4697.3 c -106.5,-3.7 -210.9,14.8 -313.3,45.1 -102.1,31 -201.4,76.2 -293.4,135.4 -91.9,58.8 -179.9,129.1 -249.9,215.6 -73,84 -128.1,182.5 -165.7,286 -23.6,65 10,136.8 75,160.4 54.1,19.7 112.9,-0.3 144.7,-44.9 l 6.8,-9.5 c 53.3,-75 96.1,-152.8 151.6,-223.3 52.4,-72.3 110,-142.1 176,-206.5 130.6,-129.7 292.6,-238.6 473.7,-323 l 1.6,-0.7 c 9,-4.3 13,-15 8.7,-24.1 -2.9,-6.4 -9.2,-10.3 -15.8,-10.5"
         style="fill:#371a45;fill-opacity:1;fill-rule:nonzero;stroke:none"
         id="path154" /><path
         d="m 25440.5,5264.7 c -279,-80.7 -1486.4,-324.4 -1453.4,811.4 6.8,239.7 84.8,626.1 79.3,626.6 -1.8,0.1 -71.3,-35 -170.2,-70.1 -202.9,-72.1 -529.8,-144.2 -650.7,88.2 -65.3,125.5 -45.3,241 23.5,343.4 18.6,27.6 41.3,54.8 66.6,80.7 218.9,222.9 656.1,367.4 841.8,391.4 0,0 -1.4,15.4 -4.1,44 -16.3,175.3 -84.2,844.9 -209.7,1424.8 -68,313.1 -152.7,600.3 -255.1,769.3 l 88.8,624.3 41.2,291.8 137.3,965.5 69.3,486.1 c 15.9,0 1079.2,-4.5 1488.3,-1225.1 0.9,-2.2 1.4,-4.5 2.3,-6.8 244.6,-737.1 293.1,-2098.1 176.2,-3948.8 -33,-523.3 318.5,-1525.5 -271.4,-1696.7"
         style="fill:#ffffff;fill-opacity:1;fill-rule:nonzero;stroke:none"
         id="path156" /><path
         d="m 22786.9,6606.7 -23,2.6 c 0,0 -14.1,330.5 29.8,717 23,202.5 -114.7,386.6 -315.5,422.2 -275,48.8 -606,142.4 -990.6,310.2 81.3,70.5 144.9,159.8 185.6,262.4 l 56.9,143.3 c 610.5,-259.1 1130.9,-317.9 1477.6,-317.9 171,0 299.7,14.3 376.1,26 -43.7,-227.2 -100.3,-447.2 -188.2,-641.7 -44.8,-99.3 -98.9,-187 -155.2,-263 -22.9,-22.2 -45.1,-46.3 -66.3,-72.8 -14.1,-17.6 -27.8,-36.5 -40.7,-56.7 -140.2,-152.5 -266.1,-231 -268,-232.1 l -70.6,-42.7 -1.7,-82.6 c -0.6,-27 -1.8,-58.1 -3.2,-93.3 -1,-24.9 -2.1,-51.9 -3,-80.9"
         style="fill:#b9afbe;fill-opacity:1;fill-rule:nonzero;stroke:none"
         id="path158" /><path
         d="m 22936.5,6589.4 -149.6,17.3 c 0.9,29 2,56 3,80.9 1.4,35.2 2.6,66.3 3.2,93.3 l 1.7,82.6 70.6,42.7 c 1.9,1.1 127.8,79.6 268,232.1 -35.6,-55.6 -64.9,-120.7 -76.7,-195 -4.6,-28.7 -6.1,-57.8 -4.8,-86.6 -65.4,-52.3 -108.6,-78.4 -108.6,-78.4 -0.9,-49.8 -4.5,-113.2 -6.8,-188.9 m 303.9,678.4 c 56.3,76 110.4,163.7 155.2,263 87.9,194.5 144.5,414.5 188.2,641.7 52.4,7.9 80.2,14.7 80.2,14.7 0,0 55.6,19.7 121.3,78.8 -62.1,-265.5 -133.9,-531.9 -250.5,-791.2 -63.1,-33.7 -125,-71.7 -185.5,-115.7 -37.1,-27.6 -73.8,-57.3 -108.9,-91.3"
         style="fill:#371a45;fill-opacity:1;fill-rule:nonzero;stroke:none"
         id="path160" /><path
         d="m 23379.2,9044.5 c 59.5,272.9 85.7,603.2 41.6,1013.1 -37.8,351.1 28.7,466.5 132.7,466.5 48,0 103.9,-24.6 161.3,-61.9 29.9,-20 57.6,-40.8 82.5,-63.5 l -82.6,-580.3 c -0.4,0 -0.9,0 -1.4,0 -4.2,0 -8.5,-0.5 -12.7,-1.6 -28,-7 -44.9,-35.4 -37.9,-63.3 l 1.5,-6.1 c 19.5,-77.6 36.1,-155.3 51.1,-233.5 l -7,-118.6 19.2,53.4 c 13.3,-73.2 25.7,-146.8 38.2,-220.9 -11.2,-48.6 -21.6,-98 -31.4,-148.1 -111.9,-23.8 -231.7,-34.5 -355.1,-35.2"
         style="fill:#b9afbe;fill-opacity:1;fill-rule:nonzero;stroke:none"
         id="path162" /><path
         d="m 23708.3,9395.3 7,118.6 c 4.2,-21.7 8.2,-43.4 12.2,-65.2 l -19.2,-53.4"
         style="fill:#b9afbe;fill-opacity:1;fill-rule:nonzero;stroke:none"
         id="path164" /><path
         d="m 23734.3,9079.7 c 9.8,50.1 20.2,99.5 31.4,148.1 1.5,-8.9 3,-17.8 4.5,-26.7 l 19,-108.5 c -18.1,-4.7 -36.4,-9 -54.9,-12.9"
         style="fill:#371a45;fill-opacity:1;fill-rule:nonzero;stroke:none"
         id="path166" /><path
         d="m 24379.8,7384.5 c -25.8,0 -45.2,10.4 -45.2,10.4 -7.5,-5.3 -15.1,-7.8 -22.9,-7.8 -7.1,0 -14.3,2.1 -21.6,6.1 l 54.8,6.7 -12.4,149.6 c -16.2,195 -36.5,385.9 -57.5,578.7 -21.2,192.5 -48.8,384.5 -85,575.7 l -28.9,143.2 -34,142.6 c -10.9,47.5 -23.5,95.1 -37.6,142.2 -14,47.3 -27,94.3 -44.5,141 -16.9,46.8 -33.9,93.2 -52.7,139.2 -21.5,45.7 -41.7,91.6 -64.1,136.3 -24,44.7 -50.9,88.9 -78.1,131.5 -28.3,42.8 -64.2,83.1 -97.7,120.9 -9.5,10.7 -23.1,17.2 -37.7,17.6 l 82.6,580.3 v 0 c 174.9,-155.4 237.9,-376.9 298.6,-650.6 8.6,-39.4 19.4,-82.9 31.2,-130.4 96.5,-384.2 286.4,-1017.2 368.8,-1717.6 53,-451 -51.7,-515.6 -116.1,-515.6"
         style="fill:#b9afbe;fill-opacity:1;fill-rule:nonzero;stroke:none"
         id="path168" /><path
         d="m 23752.4,9800.8 c 33.5,-37.8 69.4,-78.1 97.7,-120.9 27.2,-42.6 54.1,-86.8 78.1,-131.5 22.4,-44.7 42.6,-90.6 64.1,-136.3 18.8,-46 35.8,-92.4 52.7,-139.2 17.5,-46.7 30.5,-93.7 44.5,-141 14.1,-47.1 26.7,-94.7 37.6,-142.2 l 34,-142.6 28.9,-143.2 c 36.2,-191.2 63.8,-383.2 85,-575.7 21,-192.8 41.3,-383.7 57.5,-578.7 l 12.4,-149.6 -147.3,-18 c -51.4,-6.2 -112.7,-21 -171.1,-38.8 -59,-17.6 -117.9,-38.4 -175.4,-61.6 -114.7,-46.7 -225.6,-103.4 -318.4,-171.4 -93.5,-66.4 -162.4,-151.9 -170.6,-214.9 -4,-31.4 0.5,-62.5 19.4,-100.6 16.6,-31.6 33.6,-46.7 64.3,-60.8 31.5,-12.9 78,-19 129.9,-16.3 52.3,3 108.7,13.1 165.7,28.4 57,15.2 114.7,35.1 171.4,58.2 l 42.4,17.9 45.4,20.4 c -9,-4.4 14.2,9.6 54.8,14 4.9,38.6 71.5,-21 124.5,-80.6 53.6,-60.3 93.4,-120.6 41.5,-79 -0.7,-16.6 -1.3,-16.5 -1.7,-21.4 l -2.4,-16.9 -4.2,-26.7 -8.3,-50 c -21.8,-130.7 -42.1,-260.2 -54.7,-386.8 -6.4,-63.7 -9.7,-123.1 -8.1,-182.8 0.1,-59.9 6,-118 15.8,-173.9 18.9,-112.5 63.1,-210.7 128.4,-287.7 66.3,-76.1 157,-131.9 264.5,-164.5 215.4,-66.5 473.9,-53.4 716.7,-4.7 30.4,6.4 60.8,13.1 90.3,20.8 14.5,3.7 30,7.8 42.5,11.8 l 32.6,11.4 c 41.2,17.4 73.6,40.8 100.4,72.9 54.1,63.5 83.5,171.3 92.9,288.8 10.4,117.8 3.9,245.1 -7,373.7 -11.4,129.2 -28,260.8 -42.4,396.1 -13.7,135 -27.7,275.9 -18.4,426.3 l 22.7,398.8 c 13.5,265.8 24.6,531.7 30.5,797.4 6,265.7 8.8,531.3 3.7,796.1 -4.5,264.8 -14.1,529.4 -36,791.5 -45.9,521.8 -115.8,1051.3 -362.7,1478.8 -34.3,50.7 -66.2,103.2 -101.7,152.8 -40,45.7 -76.3,95 -120.1,136.8 -45.5,39.8 -86.1,84.9 -136.4,118.4 l -71.3,54.8 c -25.6,15.7 -50.2,32.6 -75.3,49 l -37.3,25.2 -39.1,22.4 c -26.4,14.2 -51.5,31.2 -78,45.6 -26.8,13.8 -54.2,26.7 -80.8,41.7 -27,14.1 -55.1,25.9 -82.6,39.9 -110.4,52.8 -228,104.8 -348.5,158.1 l -5.7,2.5 c -27.2,12 -39.5,43.8 -27.5,71 6.5,14.6 18.7,24.9 32.7,29.5 75.1,24.3 146.1,30.9 219.8,32.3 73.1,0.9 146,-7 217.5,-22.1 143.6,-29 280.5,-88.8 406.2,-165.6 30.9,-20.2 62.3,-39.7 92.6,-60.7 l 85.3,-70.5 c 58.5,-45.2 105.8,-102.2 157.7,-153.9 26.8,-25.2 47.1,-55.8 70.4,-83.9 l 68.6,-85.3 c 41.5,-59.5 80.3,-120.8 120.1,-181.4 34.5,-63.2 66.3,-127.7 99.3,-191.7 30,-65 53,-132.5 79.6,-198.8 l 19.2,-49.9 15.5,-50.7 30.4,-101.6 c 16.6,-67.9 34.8,-135.7 48.6,-203.6 56.8,-271.6 89.1,-543.1 111.6,-814.1 22.7,-270.9 32.4,-541.3 37.1,-811.3 5.1,-270 2.3,-539.4 -3.8,-808.5 -6,-269.2 -17.2,-537.8 -30.8,-806.2 l -22.9,-402.3 c -7.6,-116.9 3.7,-243.5 17.3,-374.3 13.9,-130.6 30.8,-264.5 42.9,-401.7 11.4,-137.7 19.8,-278.6 7,-427.6 -6.5,-74.4 -18.3,-150.9 -42.2,-229.2 -24.2,-77.8 -61.5,-158.7 -120.5,-229.7 -58.4,-71.3 -138,-127.8 -220.4,-161.5 l -62,-21.9 c -19.4,-6 -36.3,-10.4 -54.1,-15 -35.3,-9.2 -70.2,-16.9 -105.3,-24.3 -140,-28.7 -282.2,-45.2 -427.8,-47 -145.4,-0.7 -295.1,12.5 -443.8,59.6 -148,44.7 -296.3,130.6 -405.6,257.2 -108.6,126.4 -173.3,283.3 -198.7,434.1 -13.4,75.7 -20.5,151.2 -20.9,225 -1.8,74 2.6,148.4 9.6,217.7 13.9,139.6 35.3,274.5 57.4,407.5 l 8.2,49 3.6,22.8 1.1,8 -0.5,-8.9 c -52.2,42.3 -11.7,-17.1 42.2,-76.5 52.8,-58.3 118.3,-116.5 121.9,-79.1 38.7,3.7 59.9,17 49,11.6 l -46,-20.7 -50,-21.1 c -67.2,-27.3 -136.1,-51.3 -208.3,-70.6 -72.2,-19.2 -147.9,-33.7 -229.2,-38.3 -81.3,-3.8 -171,1.9 -264.2,39.3 -46.2,19.3 -91.6,47.7 -130.5,83.7 -39.6,35.9 -68.9,80.2 -91.7,123.5 -41.8,80.8 -65,186.8 -48.7,288 16.1,101.2 64.6,185.4 117.4,251.7 53.5,67 113.8,118.5 175.2,164.1 123.4,89.9 253.1,154.6 385.8,208.9 66.5,26.9 133.8,50.7 202.9,71.4 69.8,20.3 138.5,38.7 219.6,50.9 l -134.9,-167.5 c -18.6,186.4 -42,376.2 -70.3,563.3 l -87.9,560.4 -45.9,278.3 -48.4,276.3 c -31.3,184.6 -60.6,366 -106,546.3 l -1.5,6.1 c -7,27.9 9.9,56.3 37.9,63.3 19.5,4.9 39.2,-1.9 51.8,-16"
         style="fill:#371a45;fill-opacity:1;fill-rule:nonzero;stroke:none"
         id="path170" /><path
         d="m 24885.5,5340.5 c -117.2,0 -231,13.5 -334.8,45.6 -107.5,32.6 -198.2,88.4 -264.5,164.5 -65.3,77 -109.5,175.2 -128.4,287.7 -9.8,55.9 -15.7,114 -15.8,173.9 -1.2,44.8 0.3,89.4 3.9,135.8 226.9,-285 623.6,-390.4 920,-390.4 164.4,0 297.9,32.4 354.6,84.5 100.5,92.3 157.8,232.7 192.8,381 2,-20.8 4,-41.6 5.8,-62.3 10.9,-128.6 17.4,-255.9 7,-373.7 -9.4,-117.5 -38.8,-225.3 -92.9,-288.8 -26.8,-32.1 -59.2,-55.5 -100.4,-72.9 l -32.6,-11.4 c -12.5,-4 -28,-8.1 -42.5,-11.8 -29.5,-7.7 -59.9,-14.4 -90.3,-20.8 -125.8,-25.3 -255.8,-40.9 -381.9,-40.9"
         style="fill:#b9afbe;fill-opacity:1;fill-rule:nonzero;stroke:none"
         id="path172" /><path
         d="m 24884.2,5185.8 c -427.6,0 -918.5,160.3 -897.2,890 3.1,102.6 13.1,215.2 25.8,317.8 31.3,-93.6 77,-175.1 133.1,-245.6 -3.6,-46.4 -5.1,-91 -3.9,-135.8 0.1,-59.9 6,-118 15.8,-173.9 18.9,-112.5 63.1,-210.7 128.4,-287.7 66.3,-76.1 157,-131.9 264.5,-164.5 103.8,-32.1 217.6,-45.6 334.8,-45.6 126.1,0 256.1,15.6 381.9,40.9 30.4,6.4 60.8,13.1 90.3,20.8 14.5,3.7 30,7.8 42.5,11.8 l 32.6,11.4 c 41.2,17.4 73.6,40.8 100.4,72.9 54.1,63.5 83.5,171.3 92.9,288.8 10.4,117.8 3.9,245.1 -7,373.7 -1.8,20.7 -3.8,41.5 -5.8,62.3 50.3,213.9 53.9,444.1 72.5,569.9 55.8,-489.8 172.5,-1407.3 -245.6,-1528.6 -99.6,-28.9 -318.1,-78.6 -556,-78.6"
         style="fill:#371a45;fill-opacity:1;fill-rule:nonzero;stroke:none"
         id="path174" /><path
         d="m 18809.4,11407.8 c 12,29.9 23.7,59.7 35.2,89.3 -7.8,-27.6 -15.8,-55.4 -24,-83.3 -3.8,-2 -7.5,-4 -11.2,-6"
         style="fill:#b9afbe;fill-opacity:1;fill-rule:nonzero;stroke:none"
         id="path176" /><path
         d="m 17854.6,10477.9 c -84.7,-257.1 55,-534.1 312.1,-618.8 257,-84.7 534.1,55 618.8,312.1 84.7,257 -55,534.1 -312.1,618.8 -257.1,84.7 -534.1,-55 -618.8,-312.1"
         style="fill:#ffffff;fill-opacity:1;fill-rule:nonzero;stroke:none"
         id="path178" /><path
         d="m 18108.4,10064 c -36.3,29.4 -66.2,66.5 -87.9,109.5 -40.4,80 -47.1,170.9 -19.1,256 v 0 c 6.1,18.6 13.7,36.3 22.7,53.2 41.5,-74 102.3,-137.5 178.1,-182.2 l -93.8,-236.5"
         style="fill:#b9afbe;fill-opacity:1;fill-rule:nonzero;stroke:none"
         id="path180" /><path
         d="m 17854.6,10477.9 h 0.5 -0.5 m 465.1,182.3 c -51.8,0 -103.2,-12.2 -150.7,-36.1 -80,-40.4 -139.6,-109.5 -167.6,-194.6 v 0 c -28,-85.1 -21.3,-176 19.1,-256 40.3,-80 109.4,-139.6 194.5,-167.6 175.7,-57.9 365.8,37.9 423.7,213.6 57.8,175.7 -38,365.8 -213.6,423.6 -34.6,11.4 -70.1,17.1 -105.4,17.1 m -0.2,-980.4 c -66.7,0 -134.5,10.5 -201.2,32.5 -163.6,53.8 -296.4,168.2 -373.9,321.9 -77.5,153.8 -90.5,328.5 -36.6,492.1 v 0 c 53.8,163.5 168.2,296.3 322,373.8 153.7,77.6 328.5,90.5 492,36.7 337.6,-111.2 521.8,-476.4 410.5,-814 -89.2,-270.9 -342,-443 -612.8,-443"
         style="fill:#371a45;fill-opacity:1;fill-rule:nonzero;stroke:none"
         id="path182" /><path
         d="m 18424.8,9010 2408.1,-955.5 c 285,-113.2 611,27.4 724.3,312.8 l 508.4,1281.5 c 99.1,249.9 3.5,530.7 -213.4,672.7 -30.6,20.3 -63.9,37.4 -99.4,51.6 l -2407.8,955.4 c -285.4,113.3 -611.4,-27.4 -724.3,-312.8 l -402.9,-1014.9 -105.9,-266.5 c -113.3,-285.4 27.9,-611.1 312.9,-724.3"
         style="fill:#ffffff;fill-opacity:1;fill-rule:nonzero;stroke:none"
         id="path184" /><path
         d="m 20424.8,8393.8 c -53.7,0 -107.2,10.2 -158.3,30.5 l -1878.6,745.6 c -164.6,111.3 -236,326.1 -159.7,518.2 l 85.1,214.5 c 186.6,-173.2 483.1,-358 948.8,-534.2 317,-119.8 585.9,-186 819.3,-203 18.2,-19.9 41.1,-35.9 67.8,-46.4 l 187.9,-73.3 c 42.9,-16.7 87.3,-24.6 132,-24.6 189.8,0 383.5,143 470.7,366.5 4.6,11.8 8.8,23.6 12.6,35.5 110.2,90.1 211.5,202.3 308.7,335 L 20828.2,8667 c -42.4,-106.9 -124.4,-191.1 -231,-237.2 -55.5,-23.9 -114,-36 -172.4,-36"
         style="fill:#b9afbe;fill-opacity:1;fill-rule:nonzero;stroke:none"
         id="path186" /><path
         d="m 20878.8,8170.6 c 106.9,-42.4 224.5,-40.4 331,5.6 106.6,46 188.6,130.2 231,237.1 l 508.6,1281.6 c 42.4,107 40.5,224.5 -5.6,331.1 -46,106.5 -130.2,188.6 -237.1,231 l -2407.9,955.5 c -221.9,87.9 -474,-20.9 -562.1,-242.7 l -508.5,-1281.7 c -88.1,-221.9 20.8,-474 242.7,-562 l 2407.9,-955.5 m 158.5,-280.6 c -84.8,0 -169.6,16.1 -250.7,48.2 l -2407.9,955.5 c -350,138.9 -521.8,536.6 -382.9,886.6 l 508.6,1281.7 c 138.8,349.9 536.6,521.7 886.6,382.8 l 2407.9,-955.5 c 169,-67 302,-196.4 374.5,-364.2 72.5,-167.9 75.4,-353.4 8.4,-522.4 l -508.6,-1281.6 c -67,-169 -196.4,-302 -364.2,-374.4 -87.4,-37.8 -179.6,-56.7 -271.7,-56.7"
         style="fill:#371a45;fill-opacity:1;fill-rule:nonzero;stroke:none"
         id="path188" /><path
         d="m 18331.9,9057.8 c 28.6,-18.9 59.4,-34.8 92.9,-47.8 l 2408.1,-955.5 c 208.9,-82.8 439.6,-29.7 592.7,117.5 55.7,53.4 101.2,119.2 131.2,195.4 l 226.1,569.3 74.6,187.8 208.1,524.3 c 113.3,285.4 -27.9,611.1 -312.8,724.3 l -520.4,206.3 c 221.9,-140.3 320.6,-424.2 220.6,-676.7 l -274.4,-692.3 -234.1,-589.5 c -113.2,-285 -439.3,-426 -724.3,-312.9 l -1888.3,749.8"
         style="fill:#ffffff;fill-opacity:1;fill-rule:nonzero;stroke:none"
         id="path190" /><path
         d="m 21037.3,8140.1 c -53.6,0 -107.2,10.1 -158.3,30.5 l -133.8,53.1 c 144.2,75.9 255.1,199 315.4,351.2 l 190.9,481.1 c 30.6,-45.6 67.1,-80.8 110.3,-100.5 -3.1,-140.8 34.2,-268.9 52,-321.6 5.4,-16.2 9,-25.2 9,-25.2 v 0 c 0.1,-0.1 0.1,-0.2 0.1,-0.2 26.6,-13.7 53.1,-27 79.4,-39.9 l -61.6,-155.2 v -0.1 c -42.3,-106.9 -124.3,-191.1 -230.9,-237.2 -55.5,-24 -114.1,-36 -172.5,-36"
         style="fill:#b9afbe;fill-opacity:1;fill-rule:nonzero;stroke:none"
         id="path192" /><path
         d="m 20745.2,8223.7 133.8,-53.1 c 106.8,-42.5 224.3,-40.5 330.8,5.5 106.6,46.1 188.6,130.3 230.9,237.2 v 0.1 l 508.6,1281.6 c 42.5,106.9 40.5,224.4 -5.5,331 -46,106.5 -130.3,188.6 -237.2,231.1 l -118.3,46.9 c 42.9,-143.1 39.2,-300.4 -19.2,-447.5 l -508.5,-1281.6 c -60.3,-152.2 -171.2,-275.3 -315.4,-351.2 m 292.2,-333.7 c -84.9,0 -169.7,16 -250.7,48.2 l -2408,955.6 c -39.9,15.6 -78.8,35.5 -115,59.1 l 114.1,221 1888.7,-749.6 c 106.7,-42.4 224.1,-40.5 330.7,5.5 106.6,46.1 188.6,130.3 231,237.2 l 508.6,1281.7 c 76.6,193 4.6,413.9 -171.1,525.3 l 113,221.8 520.1,-206.3 c 350.2,-139.2 521.9,-537 382.9,-886.8 l -508.6,-1281.5 c -66.9,-169 -196.3,-302.1 -364.2,-374.6 -87.3,-37.7 -179.5,-56.6 -271.5,-56.6"
         style="fill:#371a45;fill-opacity:1;fill-rule:nonzero;stroke:none"
         id="path194" /><path
         d="m 20245.1,9628.2 c -18.5,-47.5 -101.3,-457 -101.3,-457 0,0 121.4,-47.4 270.6,-105.6 186.3,-72.7 412.6,61.3 505.5,299.3 92.8,238 17.1,489.8 -169.3,562.5 -125.7,49.1 -270.6,105.6 -270.6,105.6 0,0 -204.7,-327.5 -234.9,-404.8"
         style="fill:#22a7f0;fill-opacity:1;fill-rule:nonzero;stroke:none"
         id="path196" /><path
         d="m 20471.4,9170.6 c -27.2,0 -54,4.8 -79.8,14.9 l -86.3,33.7 c 122.2,40.9 235,150.1 294,301.3 5.4,13.9 10.3,27.9 14.6,41.9 0.1,0.5 0.3,1 0.4,1.5 0,0 0,0 0.1,0.1 41.6,137.2 28.9,275.2 -27.4,377.3 l 86.4,-33.7 c 147.5,-57.6 204.3,-266.4 126.6,-465.5 -64.1,-164.3 -200.1,-271.5 -328.6,-271.5"
         style="fill:#2976b4;fill-opacity:1;fill-rule:nonzero;stroke:none"
         id="path198" /><path
         d="m 20195.1,9678.2 h 0.5 -0.5 m 69.9,-27.2 c -2.3,-6.4 -17,-53.6 -80,-358.1 -3,-14.4 4.9,-28.7 18.7,-34.1 l 187.9,-73.3 c 147.6,-57.6 330.7,57.5 408.4,256.6 77.7,199.1 20.9,407.9 -126.6,465.5 l -189,73.7 c -13.5,5.4 -29.1,0.1 -36.7,-12.3 -100.7,-164.2 -169,-283 -182.7,-318 m 204.1,-629.9 c -44.7,0 -89.1,7.9 -132,24.6 l -187.9,73.3 c -82.2,32.1 -128.9,118 -111.1,204.3 69.9,337.9 82.4,370 87.2,382.1 17.6,45.3 83.1,160.3 194.5,342 45.7,74.4 137.9,105.3 219.1,73.6 l 189,-73.7 c 224.5,-87.6 319.6,-383.6 211.9,-659.7 -87.2,-223.5 -280.9,-366.5 -470.7,-366.5"
         style="fill:#371a45;fill-opacity:1;fill-rule:nonzero;stroke:none"
         id="path200" /><path
         d="m 19924.5,9783.7 c -92.9,-238 -17.1,-489.8 169.3,-562.5 186.3,-72.7 412.6,61.3 505.5,299.3 92.8,238 17.1,489.8 -169.3,562.5 -186.3,72.7 -412.7,-61.3 -505.5,-299.3"
         style="fill:#22a7f0;fill-opacity:1;fill-rule:nonzero;stroke:none"
         id="path202" /><path
         d="m 20305.3,9219.2 v 0 c 122.2,40.9 235,150.1 294,301.3 5.4,13.9 10.3,27.9 14.6,41.9 -4.3,-14 -9.2,-28 -14.6,-41.9 -59,-151.2 -171.8,-260.4 -294,-301.3"
         style="fill:#2e568d;fill-opacity:1;fill-rule:nonzero;stroke:none"
         id="path204" /><path
         d="m 20199.8,9201.4 v 0 c 35.2,0 70.7,6.1 105.5,17.8 v 0 c -34.8,-11.7 -70.3,-17.8 -105.5,-17.8 m -106,19.8 v 0 c -0.4,0.1 -0.7,0.2 -1,0.4 0.3,-0.2 0.6,-0.3 1,-0.4 v 0 m -1.4,0.5 c -0.2,0.1 -0.4,0.2 -0.6,0.3 0.2,-0.1 0.4,-0.2 0.6,-0.3 m -1.1,0.4 c -0.2,0.1 -0.3,0.2 -0.5,0.2 0.2,0 0.3,-0.1 0.5,-0.2 m -1,0.4 c -0.1,0.1 -0.3,0.2 -0.4,0.2 0.1,0 0.3,-0.1 0.4,-0.2 m -2.6,1.1 c -0.1,0 -0.2,0.1 -0.2,0.1 0,0 0.1,-0.1 0.2,-0.1 m -0.9,0.4 c -0.1,0 -0.2,0.1 -0.3,0.1 0.1,0 0.2,-0.1 0.3,-0.1 m -1,0.4 c 0,0 -0.1,0.1 -0.2,0.1 0.1,0 0.2,-0.1 0.2,-0.1"
         style="fill:#371a45;fill-opacity:1;fill-rule:nonzero;stroke:none"
         id="path206" /><path
         d="m 20199.8,9201.4 c -36,0 -71.7,6.4 -106,19.8 v 0 c -0.4,0.1 -0.7,0.2 -1,0.4 -0.2,0 -0.3,0.1 -0.4,0.1 -0.2,0.1 -0.4,0.2 -0.6,0.3 -0.2,0 -0.3,0.1 -0.5,0.1 -0.2,0.1 -0.3,0.2 -0.5,0.2 -0.2,0.1 -0.3,0.2 -0.5,0.2 -0.1,0.1 -0.3,0.2 -0.4,0.2 -0.8,0.3 -1.5,0.6 -2.2,0.9 -0.1,0 -0.2,0.1 -0.2,0.1 -0.3,0.1 -0.5,0.2 -0.7,0.3 -0.1,0 -0.2,0.1 -0.3,0.1 -0.2,0.1 -0.5,0.2 -0.7,0.3 0,0 -0.1,0.1 -0.2,0.1 -115.7,49.2 -186.8,169 -198.7,310.6 5.6,-65.3 23.8,-125.9 53.2,-177.2 -9.7,68.6 -5.4,143.3 15.2,218.1 25.8,-23.2 55.3,-41.9 88.4,-54.8 34.4,-13.4 70.1,-19.8 106.1,-19.8 159.2,0 323.7,124.9 399.5,319.1 7.5,19.2 13.8,38.5 19.1,57.7 25.6,-23.1 47.5,-50.8 65.3,-81.9 v 0 0 c -3,21.2 -7.4,41.8 -13.1,61.7 25.4,-88.1 24.9,-191.2 -6.2,-294 -0.1,-0.1 -0.1,-0.1 -0.1,-0.1 -0.1,-0.5 -0.3,-1 -0.4,-1.5 -4.3,-14 -9.2,-28 -14.6,-41.9 -59,-151.2 -171.8,-260.4 -294,-301.3 -34.8,-11.7 -70.3,-17.8 -105.5,-17.8"
         style="fill:#2976b4;fill-opacity:1;fill-rule:nonzero;stroke:none"
         id="path208" /><path
         d="m 19914.7,9756.7 c 0,0 0,0 0,0.1 0,-0.1 0,-0.1 0,-0.1 m 0.5,1.5 c 2.9,8.5 6,17.1 9.3,25.5 75.7,194.2 240.3,319.1 399.5,319.1 9.8,0 19.6,-0.5 29.4,-1.4 -9.8,0.9 -19.6,1.4 -29.4,1.4 -159.2,0 -323.8,-124.9 -399.5,-319.1 -3.3,-8.4 -6.4,-17 -9.3,-25.5 m 445.8,342.3 c -0.7,0.1 -1.3,0.2 -1.9,0.3 0.6,-0.1 1.2,-0.2 1.9,-0.3"
         style="fill:#ffffff;fill-opacity:1;fill-rule:nonzero;stroke:none"
         id="path210" /><path
         d="m 20446.9,10075.8 c 0,0 0,0 -0.1,0 0.1,0 0.1,0 0.1,0 m -1.1,0.6 c -0.1,0 -0.2,0 -0.3,0.1 0.1,-0.1 0.2,-0.1 0.3,-0.1 m -1.2,0.5 c -0.1,0 -0.3,0.1 -0.4,0.2 0.1,-0.1 0.3,-0.2 0.4,-0.2 m -1.2,0.5 c -0.1,0.1 -0.3,0.2 -0.4,0.2 0.1,-0.1 0.3,-0.1 0.4,-0.2 m -1.5,0.7 c -0.2,0.1 -0.5,0.2 -0.7,0.3 0.3,-0.1 0.5,-0.2 0.7,-0.3 m -1.2,0.5 c -0.2,0.1 -0.4,0.2 -0.7,0.3 0.2,-0.1 0.5,-0.2 0.7,-0.3 m -1.1,0.5 c -0.3,0.1 -0.5,0.2 -0.8,0.3 0.3,-0.1 0.5,-0.2 0.8,-0.3 m -1.2,0.5 c -0.2,0.1 -0.5,0.2 -0.7,0.3 0.2,-0.1 0.5,-0.2 0.7,-0.3 m -1.1,0.5 c -0.6,0.2 -1.1,0.5 -1.7,0.7 0.6,-0.2 1.1,-0.5 1.7,-0.7 m -1.9,0.8 c -0.2,0.1 -0.5,0.2 -0.7,0.3 0.2,-0.1 0.5,-0.2 0.7,-0.3 m -1.1,0.4 c -0.3,0.1 -0.5,0.2 -0.8,0.3 0.3,-0.1 0.5,-0.2 0.8,-0.3 m -1.3,0.5 c -0.2,0.1 -0.4,0.2 -0.6,0.3 0.2,-0.1 0.4,-0.2 0.6,-0.3 m -1.2,0.6 c -0.2,0 -0.4,0.1 -0.6,0.2 0.2,-0.1 0.4,-0.2 0.6,-0.2"
         style="fill:#afa3b5;fill-opacity:1;fill-rule:nonzero;stroke:none"
         id="path212" /><path
         d="m 19886.9,9535.1 c -6.1,70.4 2.5,146.3 27.8,221.6 0,0 0,0 0,0.1 0.2,0.4 0.3,0.9 0.5,1.4 2.9,8.5 6,17.1 9.3,25.5 75.7,194.2 240.3,319.1 399.5,319.1 9.8,0 19.6,-0.5 29.4,-1.4 1.9,-0.2 3.8,-0.4 5.7,-0.6 0.6,-0.1 1.2,-0.2 1.9,-0.3 23.3,-2.9 46.5,-8.7 69,-17.5 0.4,-0.1 0.8,-0.3 1.2,-0.4 0.2,-0.1 0.4,-0.2 0.6,-0.2 0.2,-0.1 0.4,-0.2 0.6,-0.3 0.2,-0.1 0.4,-0.2 0.6,-0.3 0.2,0 0.4,-0.1 0.5,-0.2 0.3,-0.1 0.5,-0.2 0.8,-0.3 0.1,0 0.3,-0.1 0.4,-0.1 0.2,-0.1 0.5,-0.2 0.7,-0.3 0.1,-0.1 0.1,-0.1 0.2,-0.1 0.6,-0.2 1.1,-0.5 1.7,-0.7 0.1,-0.1 0.2,-0.1 0.4,-0.2 0.2,-0.1 0.5,-0.2 0.7,-0.3 0.2,-0.1 0.3,-0.1 0.4,-0.2 0.3,-0.1 0.5,-0.2 0.8,-0.3 0.1,-0.1 0.3,-0.1 0.4,-0.2 0.3,-0.1 0.5,-0.2 0.7,-0.3 0.2,-0.1 0.4,-0.1 0.5,-0.2 0.2,-0.1 0.5,-0.2 0.7,-0.3 0.3,-0.2 0.7,-0.3 1.1,-0.5 0.1,0 0.3,-0.1 0.4,-0.2 0.3,-0.1 0.5,-0.2 0.8,-0.3 0.1,-0.1 0.3,-0.2 0.4,-0.2 0.3,-0.1 0.6,-0.3 0.9,-0.4 0.1,-0.1 0.2,-0.1 0.3,-0.1 0.3,-0.2 0.7,-0.4 1,-0.6 0.1,0 0.1,0 0.1,0 85.8,-40 145.7,-119.7 173.7,-217.8 -9.2,32.1 -21.8,62.2 -37.7,89.6 -3.4,-23 -8.2,-46.2 -14.5,-69.4 -25.7,23.3 -55.3,41.9 -88.4,54.8 -34.3,13.4 -70,19.8 -106,19.8 -159.2,0 -323.8,-124.9 -399.5,-319.1 -7.5,-19.1 -13.9,-38.4 -19.2,-57.7 -25.2,22.8 -46.8,50.1 -64.4,80.6 -6.1,-41.5 -7.3,-82.4 -4,-121.5"
         style="fill:#a7dcf9;fill-opacity:1;fill-rule:nonzero;stroke:none"
         id="path214" /><path
         d="m 19940.1,9357.9 c -29.4,51.3 -47.6,111.9 -53.2,177.2 -3.3,39.1 -2.1,80 4,121.5 17.6,-30.5 39.2,-57.8 64.4,-80.6 -20.6,-74.8 -24.9,-149.5 -15.2,-218.1 m 693.6,438.4 c -17.8,31.1 -39.7,58.8 -65.3,81.9 6.3,23.2 11.1,46.4 14.5,69.4 15.9,-27.4 28.5,-57.5 37.7,-89.6 5.7,-19.9 10.1,-40.5 13.1,-61.7"
         style="fill:#a9c8e1;fill-opacity:1;fill-rule:nonzero;stroke:none"
         id="path216" /><path
         d="m 19994.4,9756.5 c -77.7,-199.1 -20.9,-407.9 126.6,-465.5 147.5,-57.6 330.7,57.6 408.4,256.7 77.7,199.1 20.9,407.9 -126.6,465.5 -147.5,57.5 -330.8,-57.6 -408.4,-256.7 z m 204.1,-629.9 c -44.7,0 -89.2,8 -132,24.7 -224.6,87.6 -319.6,383.6 -211.9,659.7 107.8,276.2 378.1,429.5 602.7,341.9 224.6,-87.6 319.6,-383.6 211.9,-659.7 -87.2,-223.5 -281,-366.6 -470.7,-366.6"
         style="fill:#371a45;fill-opacity:1;fill-rule:nonzero;stroke:none"
         id="path218" /><path
         d="m 19177,8597.2 c -14.4,0 -29,2.5 -43.3,7.8 -64.8,23.9 -97.9,95.8 -73.9,160.5 l 304.4,823.5 c 2.5,6.7 1.4,14.1 -2.8,19.9 l -215.6,294.6 c -55.2,75.4 -67.7,172.4 -33.5,259.4 l 427,1087.1 c 25.2,64.3 97.8,95.9 162,70.7 64.3,-25.2 95.9,-97.8 70.7,-162.1 l -427,-1087.1 c -2.7,-6.9 -1.7,-14.4 2.6,-20.4 l 215.6,-294.5 c 53.8,-73.6 67.1,-168.7 35.5,-254.2 l -304.4,-823.5 c -18.7,-50.5 -66.5,-81.7 -117.3,-81.7"
         style="fill:#371a45;fill-opacity:1;fill-rule:nonzero;stroke:none"
         id="path220" /><path
         d="m 23870,9116.6 c 0,0 167.6,-238.5 100.5,-521.3 -77.6,-327 -306.5,-408.1 -306.5,-408.1 0,0 -968.7,-234.1 -2241.1,421.3 0,0 -254,633.8 272,816.8 0,0 1373.6,-579.5 2175.1,-308.7"
         style="fill:#ffffff;fill-opacity:1;fill-rule:nonzero;stroke:none"
         id="path222" /><path
         d="m 21422.8,8608.7 v 0 c 0,0 -3.6,9 -9,25.2 5.1,-15.1 8.6,-24 9,-25.2"
         style="fill:#8c7b94;fill-opacity:1;fill-rule:nonzero;stroke:none"
         id="path224" /><path
         d="m 23207.5,8146.7 c -403.6,0 -1042.4,79.6 -1784.7,462 -0.4,1.2 -3.9,10.1 -9,25.2 -20.8,61.8 -68.5,227.7 -46.3,395.7 3.7,-11.8 6.4,-18.1 6.4,-18.1 741.9,-382.4 1380.7,-462.1 1784.2,-462.1 102.3,0 189.4,5.2 259.3,11.8 240.2,22.7 443.1,192.9 501.7,426.9 0.8,3.3 1.6,6.5 2.3,9.8 1.4,5.4 2.8,10.8 3.2,16.3 41.7,-96.1 86.1,-249.6 45.8,-419.1 -77.5,-326.6 -306.3,-407.7 -306.3,-407.7 0,0 -168.3,-40.7 -456.6,-40.7"
         style="fill:#b9afbe;fill-opacity:1;fill-rule:nonzero;stroke:none"
         id="path226" /><path
         d="m 21549.6,8717.7 c 1104.5,-549.5 1964.4,-403 2068.1,-382.4 27.4,13.5 152.5,85.3 202.4,295.7 27.9,117.6 0.2,228.4 -29.4,302.9 -756.9,-173.2 -1828.4,219 -2095.7,324.5 -69.1,-33.5 -116.8,-80.8 -145.3,-143.3 -61.8,-135.6 -24.8,-311.6 -0.1,-397.4 z m 1655.6,-726.6 c -423.4,0 -1084.6,84.2 -1853.1,480 l -51.3,26.4 -21.4,53.5 c -15.6,39 -148.8,389.9 -11.1,692.2 69.9,153.4 199.8,266.9 375.7,328.1 l 56.1,19.5 54.8,-23 c 13.2,-5.6 1329.4,-553.6 2065.6,-304.8 l 109.5,37 66.5,-94.5 c 8.4,-12.1 206.6,-299.3 124.4,-645.9 -76.5,-322.8 -290.8,-477.6 -405.3,-518.2 l -15.3,-4.5 c -17.2,-4.2 -197.4,-45.8 -495.1,-45.8"
         style="fill:#371a45;fill-opacity:1;fill-rule:nonzero;stroke:none"
         id="path228" /><path
         d="m 19310,5349 c -718,0 -1244.6,406.3 -1252.2,412.4 -43.4,34.2 -50.8,97 -16.6,140.4 34.2,43.4 97.1,50.8 140.5,16.5 42.2,-33.1 1007.8,-771.5 2081.2,-77.1 46.4,30.1 108.3,16.8 138.3,-29.6 30,-46.4 16.7,-108.3 -29.6,-138.3 C 19998.9,5432.2 19634.8,5349 19310,5349"
         style="fill:#371a45;fill-opacity:1;fill-rule:nonzero;stroke:none"
         id="path230" /><path
         d="m 21913,5374.6 c -744.5,0 -1324.5,376.3 -1333,381.9 -46,30.5 -58.6,92.6 -28,138.6 30.5,46 92.4,58.6 138.5,28.1 11.5,-7.5 1157.7,-747.6 2237.7,-49 46.4,30.1 108.3,16.8 138.3,-29.6 30,-46.4 16.7,-108.3 -29.6,-138.3 -382.6,-247.5 -771.7,-331.7 -1123.9,-331.7"
         style="fill:#371a45;fill-opacity:1;fill-rule:nonzero;stroke:none"
         id="path232" /><path
         d="m 24098,8123.9 c -41.1,0 -79.7,25.6 -94.2,66.6 -18.4,52 8.7,109.2 60.8,127.6 48.7,17.3 1197.3,417.5 1763.5,-14.7 43.9,-33.6 52.3,-96.3 18.8,-140.2 -33.5,-43.9 -96.2,-52.3 -140.1,-18.8 -480.4,366.6 -1564.5,-10.9 -1575.4,-14.8 -11,-3.9 -22.3,-5.7 -33.4,-5.7"
         style="fill:#371a45;fill-opacity:1;fill-rule:nonzero;stroke:none"
         id="path234" /><path
         d="m 18099.9,14820.1 c -35.4,0 -71.3,0.8 -108.2,2.4 -55.1,2.5 -97.8,49.3 -95.3,104.5 2.4,55.1 48.9,97.8 104.4,95.3 1342.2,-60.6 1565.1,1114.6 1573.9,1164.7 9.5,54.3 61.4,90.7 115.6,81.2 54.4,-9.4 90.8,-61 81.4,-115.4 -2.3,-13.6 -246.7,-1332.7 -1671.8,-1332.7"
         style="fill:#371a45;fill-opacity:1;fill-rule:nonzero;stroke:none"
         id="path236" /><path
         d="m 23838.5,10690.5 c -611.1,43 -1300.3,208 -2017.9,594.9 -1017.6,549.5 -1631,1296.2 -1999.8,1966.3 111.9,121.4 221.1,233.7 314,332.5 l 127.3,-107.8 207,-48 28.6,-6.7 c 397.1,-597.2 934,-1114.2 1596,-1496.4 573.2,-331 1195.2,-536.9 1833.2,-613.3 l -88.4,-621.5"
         style="fill:#b9afbe;fill-opacity:1;fill-rule:nonzero;stroke:none"
         id="path238" /><path
         d="m 24180.7,10678.7 c -43.6,0 -87.8,0.6 -132.4,1.8 -68.9,1.9 -138.6,5 -209.8,10 v 0 l 88.4,621.5 c 187.4,-22.4 376.1,-33.7 565.5,-33.7 223.6,0 448,15.7 671.7,47.3 17.4,-26.6 34.6,-53.4 52.4,-79.8 69.6,-120.4 125,-248.8 169.9,-382.9 -254,-87 -519.2,-143.7 -790.4,-166.5 -132.5,-11.1 -271.1,-17.7 -415.3,-17.7"
         style="fill:#b9afbe;fill-opacity:1;fill-rule:nonzero;stroke:none"
         id="path240" /><path
         d="m 25386.4,10862.9 c -44.9,134.1 -100.3,262.5 -169.9,382.9 -17.8,26.4 -35,53.2 -52.4,79.8 56.5,8 112.8,17 169.2,27 76,-124.5 144.2,-268.7 200.1,-435.6 -48.5,-19.1 -97.6,-37.2 -147,-54.1"
         style="fill:#371a45;fill-opacity:1;fill-rule:nonzero;stroke:none"
         id="path242" /><path
         d="m 27920.5,12802.4 c -47.2,22.9 -66.9,79.8 -43.9,126.9 l 1196.7,2460.4 c 22.9,47.2 79.7,66.9 126.9,43.9 494.9,-240.7 701,-837 460.3,-1332 l -408.1,-839 c -240.7,-494.9 -837,-700.9 -1331.9,-460.2"
         style="fill:#ffffff;fill-opacity:1;fill-rule:nonzero;stroke:none"
         id="path244" /><path
         d="m 27930.1,12822.2 c 234.1,-113.8 498.4,-129.7 744.5,-44.7 246,85 444.1,260.7 558,494.8 l 408,839 c 235,483.2 33.1,1067.5 -450,1302.4 -17.5,8.6 -37.3,9.8 -55.7,3.4 -18.4,-6.4 -33.3,-19.5 -41.8,-37 l -1196.7,-2460.4 c -8.5,-17.6 -9.7,-37.3 -3.3,-55.7 6.4,-18.4 19.5,-33.3 37,-41.8 v 0 m 425.4,-142.8 c -152.3,0 -303.7,34.6 -444.7,103.1 v 0 c -28.1,13.7 -49.2,37.5 -59.4,67.1 -10.2,29.5 -8.3,61.3 5.3,89.4 l 1196.7,2460.4 c 13.7,28.1 37.5,49.2 67.1,59.4 29.5,10.3 61.3,8.3 89.4,-5.4 244.6,-119 428.3,-326.1 517.2,-583.2 88.8,-257.2 72.2,-533.6 -46.8,-778.2 l -408,-839 c -119,-244.7 -326.2,-428.4 -583.3,-517.2 -109,-37.7 -221.5,-56.4 -333.5,-56.4"
         style="fill:#371a45;fill-opacity:1;fill-rule:nonzero;stroke:none"
         id="path246" /><path
         d="m 28355.6,12851.5 c -87.5,0 -174.8,13.8 -259.1,41.2 140.8,158.9 271.8,327.9 391.9,506.3 83.6,-22.1 168.4,-32.7 252.5,-32.8 155.5,0 308.6,36.7 446.5,105.6 l -69.9,-143.6 c -98.9,-203.3 -271,-355.9 -484.7,-429.8 -90.6,-31.3 -184,-46.9 -277.2,-46.9"
         style="fill:#b9afbe;fill-opacity:1;fill-rule:nonzero;stroke:none"
         id="path248" /><path
         d="m 27986.1,12937.3 0.1,-0.1 -0.1,0.1 v 0 m 50.2,-22.5 c 190.5,-78.2 400.3,-84.2 596.5,-16.4 213.7,73.9 385.8,226.5 484.7,429.8 l 408.1,839 c 196.1,403.2 42,887.3 -342.3,1105.8 l -1147,-2358.2 m 319.1,-363.4 c -171.4,0 -341.9,38.9 -500.6,116.1 v 0 c -58.8,28.6 -103,78.4 -124.3,140.3 -21.4,61.8 -17.4,128.3 11.2,187.1 l 1196.7,2460.4 c 28.6,58.9 78.4,103.1 140.3,124.4 61.8,21.5 128.3,17.4 187.1,-11.2 568.5,-276.5 806.1,-964 529.6,-1532.5 l -408.1,-839 c -133.9,-275.4 -367.1,-482.1 -656.5,-582.1 -122.7,-42.4 -249.3,-63.5 -375.4,-63.5"
         style="fill:#371a45;fill-opacity:1;fill-rule:nonzero;stroke:none"
         id="path250" /><path
         d="m 21079,19383.6 c 47.2,-23 66.8,-79.8 43.9,-127 l -1196.7,-2460.4 c -22.9,-47.2 -79.8,-66.8 -127,-43.9 -494.9,240.7 -700.9,837.1 -460.2,1332 l 408,839 c 240.7,494.9 837.1,701 1332,460.3"
         style="fill:#ffffff;fill-opacity:1;fill-rule:nonzero;stroke:none"
         id="path252" /><path
         d="m 20644.7,19461.8 c -361.5,0 -709.4,-201.8 -877.8,-548.1 l -408.1,-839.1 c -113.8,-234 -129.7,-498.4 -44.7,-744.4 85,-246 260.7,-444.2 494.8,-558 17.5,-8.5 37.2,-9.7 55.7,-3.4 18.4,6.4 33.2,19.5 41.7,37.1 l 1196.7,2460.3 c 17.6,36.2 2.5,79.9 -33.7,97.5 -136.8,66.6 -281.8,98.1 -424.6,98.1 m -804,-2741.2 c -17.5,0 -34.9,4 -51.1,11.9 -244.7,119 -428.4,326.1 -517.2,583.3 -88.9,257.1 -72.3,533.5 46.7,778.2 l 408.1,838.9 c 119,244.7 326.1,428.4 583.3,517.2 257.1,88.9 533.5,72.3 778.1,-46.7 h 0.1 c 58,-28.2 82.2,-98.4 54,-156.4 L 19946,16786.5 c -13.6,-28.1 -37.4,-49.2 -67,-59.4 -12.5,-4.3 -25.4,-6.5 -38.3,-6.5"
         style="fill:#371a45;fill-opacity:1;fill-rule:nonzero;stroke:none"
         id="path254" /><path
         d="m 19763.7,16945.2 c -152.8,101.9 -267.7,250.2 -328.7,426.8 -73.9,213.7 -60.1,443.4 38.8,646.7 l 68.8,141.4 c 57.7,-221.8 191.4,-422.9 386.4,-561.5 -71,-215.5 -126,-433.8 -165.3,-653.4"
         style="fill:#b9afbe;fill-opacity:1;fill-rule:nonzero;stroke:none"
         id="path256" /><path
         d="m 20644.5,19333.9 c -314,0 -616.2,-175.4 -762.6,-476.2 l -408.1,-839 c -98.9,-203.3 -112.7,-433 -38.8,-646.7 67.8,-196.3 202.1,-357.5 381.1,-459.2 l 1147.1,2358.3 c -103.9,42.5 -212,62.8 -318.7,62.8 m -803.9,-2741.3 c -36.6,0 -73.1,8.4 -107,24.8 -275.4,134 -482.1,367.1 -582.1,656.6 -100.1,289.4 -81.4,600.5 52.6,875.9 l 408.1,839 c 276.5,568.5 963.9,806 1532.4,529.6 v 0 c 121.5,-59.1 172.2,-206 113.2,-327.5 l -1196.7,-2460.4 c -28.7,-58.9 -78.5,-103 -140.3,-124.4 -26.2,-9.1 -53.3,-13.6 -80.2,-13.6"
         style="fill:#371a45;fill-opacity:1;fill-rule:nonzero;stroke:none"
         id="path258" /><path
         d="m 28537.8,13761.2 c -1287.7,-2229.8 -4139.2,-2993.7 -6369.1,-1706 -2229.8,1287.6 -2993.6,4139.1 -1706,6369 1287.7,2229.9 4139.2,2993.7 6369,1706 2229.9,-1287.6 2993.7,-4139.1 1706.1,-6369"
         style="fill:#ffffff;fill-opacity:1;fill-rule:nonzero;stroke:none"
         id="path260" /><path
         d="m 24507.8,20735 c -403,0 -808.5,-53 -1208.2,-160 -1197.3,-320.7 -2197.9,-1088.5 -2817.8,-2161.8 -1279.5,-2215.8 -517.8,-5059.4 1698,-6338.9 1073.4,-619.8 2323.9,-784.5 3521.1,-463.9 1197.2,320.7 2197.9,1088.5 2817.7,2161.9 619.9,1073.3 784.6,2323.8 463.9,3521.1 -320.7,1197.2 -1088.5,2197.9 -2161.8,2817.7 -715,412.9 -1508.8,623.9 -2312.9,623.9 m -15.2,-9328.7 c -811.8,0 -1613,212.9 -2334.9,629.8 -1083.6,625.7 -1858.6,1635.9 -2182.4,2844.5 -323.7,1208.7 -157.4,2471.1 468.3,3554.6 625.7,1083.6 1635.9,1858.7 2844.6,2182.4 1208.6,323.8 2471,157.5 3554.6,-468.2 1083.5,-625.7 1858.6,-1636 2182.3,-2844.6 323.8,-1208.7 157.5,-2471 -468.2,-3554.6 l -19.1,11 19.1,-11 c -625.7,-1083.6 -1636,-1858.6 -2844.6,-2182.4 -403.4,-108.1 -812.9,-161.5 -1219.7,-161.5"
         style="fill:#371a45;fill-opacity:1;fill-rule:nonzero;stroke:none"
         id="path262" /><path
         d="m 24492.8,11578.4 c -781.9,0.1 -1553.8,205.2 -2249.1,606.7 -849.4,490.5 -1502,1226.3 -1883.7,2110.9 455.1,-667.3 1152.6,-1397.2 2056.4,-1890.5 954.1,-520.7 1917.6,-736.5 2698,-783.9 -207.1,-28.8 -414.6,-43.2 -621.6,-43.2"
         style="fill:#b9afbe;fill-opacity:1;fill-rule:nonzero;stroke:none"
         id="path264" /><path
         d="m 24507.6,20607 c -391.9,0 -786.2,-51.5 -1174.9,-155.6 -1164.2,-311.8 -2137.4,-1058.4 -2740.1,-2102.2 -602.7,-1043.8 -762.9,-2259.8 -451.1,-3424 311.9,-1164.3 1058.5,-2137.4 2102.2,-2740.1 1043.8,-602.8 2259.8,-762.9 3424.1,-451.1 1164.2,311.9 2137.3,1058.5 2740.1,2102.2 602.7,1043.8 762.9,2259.8 451,3424.1 -311.8,1164.2 -1058.4,2137.3 -2102.2,2740 -695.3,401.6 -1467.2,606.7 -2249.1,606.7 m -15.2,-9328.7 c -834,0 -1657.1,218.8 -2398.7,647 -2297.9,1326.9 -3087.8,4276 -1760.9,6573.9 642.8,1113.2 1680.6,1909.4 2922.3,2242 1241.6,332.5 2538.5,161.7 3651.6,-481 1113.2,-642.8 1909.4,-1680.7 2242,-2922.3 332.6,-1241.7 161.8,-2538.5 -481,-3651.7 -642.8,-1113.1 -1680.6,-1909.4 -2922.3,-2242 -414.5,-111 -835.1,-165.9 -1253,-165.9"
         style="fill:#371a45;fill-opacity:1;fill-rule:nonzero;stroke:none"
         id="path266" /><path
         d="m 28465,13665 c -444.3,-796.9 -1115.4,-1392.5 -1899.1,-1758 -587.5,-274 -2398.6,-317.1 -4090.7,606.4 -1568.9,856.2 -2525.2,2480.3 -2601,3124.1 -101.2,858.8 52.6,1742.8 496.8,2539.7 1175.7,2108.8 3474.8,1973 5710,726.9 2235.2,-1246.1 3559.6,-3130.3 2384,-5239.1"
         style="fill:#371a45;fill-opacity:1;fill-rule:nonzero;stroke:none"
         id="path268" /><path
         d="m 23082.3,19687.2 c -970.9,0 -1941,-380.6 -2604,-1569.8 -417.2,-748.5 -583.9,-1601 -482.1,-2465.5 72.3,-613.7 1007.6,-2195.5 2537.9,-3030.7 1695.9,-925.6 3456.2,-847.1 3979.9,-602.9 788.9,368 1426.4,958 1843.6,1706.5 534.2,958.3 563,1909.2 85.4,2826.5 -429.6,825.2 -1267,1601.7 -2421.9,2245.5 -641.7,357.8 -1790.8,890.4 -2938.8,890.4 m 2368.8,-8075.9 c -829.1,0 -1938.1,195.7 -3034.7,794.2 -1626.2,887.5 -2584.6,2541.2 -2664.3,3217.7 -107.9,916.1 69,1820 511.6,2613.9 577,1034.9 1436.9,1601.6 2555.9,1684.2 975.9,71.9 2124.3,-242.6 3321.2,-909.9 1196.9,-667.2 2068.4,-1478.7 2520.2,-2346.6 518.1,-995.2 488.3,-2024.6 -88.7,-3059.6 -442.6,-794 -1118.4,-1419.7 -1954.4,-1809.6 -225.4,-105.1 -639.5,-184.3 -1166.8,-184.3"
         style="fill:#371a45;fill-opacity:1;fill-rule:nonzero;stroke:none"
         id="path270" /><path
         d="m 27095,13942.7 c -115.7,0 -223.2,33.7 -309.4,104.5 -255.1,209.7 -227.4,665 61.9,1017.1 191.5,233.1 449.6,362.5 676.3,362.5 115.7,0 223.2,-33.8 309.4,-104.6 206.2,-169.4 227.6,-499.3 75.6,-805.5 -128.9,-159.2 -266.1,-309.6 -410.8,-450.9 -132.3,-80.5 -272.8,-123.1 -403,-123.1"
         style="fill:#afa3b5;fill-opacity:1;fill-rule:nonzero;stroke:none"
         id="path272" /><path
         d="m 25820,13263.1 c -85.6,0 -166.7,31.1 -224.7,94.1 -121.6,132 -95.5,353.9 58.4,495.6 80.4,74.1 179.9,111.6 273.9,111.6 85.7,0 166.8,-31.1 224.8,-94.1 121.6,-132 95.4,-353.9 -58.4,-495.6 -80.5,-74.1 -180,-111.6 -274,-111.6"
         style="fill:#afa3b5;fill-opacity:1;fill-rule:nonzero;stroke:none"
         id="path274" /><path
         d="m 25463.7,11857.7 c -791.9,0 -1873.3,187 -2929.6,763.5 -480.5,262.2 -902.3,598 -1257.1,954.4 1201.9,-557.4 2412.9,-755.8 3339.6,-755.8 620.3,0 1113.1,88.8 1390.8,218.4 548.5,255.8 1053.4,600.3 1490.6,1027.6 98.2,59.7 191.8,140.1 273.3,239.3 55.5,67.6 101.4,138.9 137.5,211.6 188.1,232.4 358.6,483.5 508.6,752.7 113.1,202.6 207.7,403.7 285.2,602.9 173.6,-704.1 58.5,-1423.7 -345,-2147.5 -417.2,-748.5 -1054.7,-1338.5 -1843.6,-1706.5 -197.5,-92.1 -570.8,-160.6 -1050.3,-160.6"
         style="fill:#2a1a3b;fill-opacity:1;fill-rule:nonzero;stroke:none"
         id="path276" /><path
         d="m 25470.1,11734.9 c -824,0 -1932.9,198.9 -2995,778.4 -597.6,325.9 -1106,763.2 -1510.9,1215.8 104,-54 208.4,-105.1 312.8,-153.5 354.8,-356.4 776.6,-692.2 1257.1,-954.4 1056.3,-576.5 2137.7,-763.5 2929.6,-763.5 479.5,0 852.8,68.5 1050.3,160.6 788.9,368 1426.4,958 1843.6,1706.5 403.5,723.8 518.6,1443.4 345,2147.5 25.9,66.5 49.9,132.8 72,198.8 231.6,-747.9 162.4,-1558.9 -309.6,-2406 -444.3,-797 -1115.6,-1392.5 -1899,-1758.2 -218.7,-102 -607.2,-172 -1095.9,-172"
         style="fill:#2a1a3b;fill-opacity:1;fill-rule:nonzero;stroke:none"
         id="path278" /><path
         d="m 27498,14065.8 c 144.7,141.3 281.9,291.7 410.8,450.9 -36.1,-72.7 -82,-144 -137.5,-211.6 -81.5,-99.2 -175.1,-179.6 -273.3,-239.3"
         style="fill:#787384;fill-opacity:1;fill-rule:nonzero;stroke:none"
         id="path280" /><path
         d="m 29147.9,15583.3 c -49.2,0 -95.6,29.2 -115.5,77 l -6.9,16 -2.2,18.9 c -149.5,1342.3 -1166.3,2631.2 -2789.7,3536.2 -1632.4,909.9 -3272,1078.6 -4498.3,462.7 l -10.8,-4.8 c -62.3,-24.8 -133.5,4.2 -160.6,66.1 -27.3,62.5 0.5,135.2 62.1,163.6 1301.3,651.9 3024.8,481 4729.4,-469.2 1691.9,-943.3 2754.2,-2298.8 2915.6,-3719.7 10.3,-58.2 -21.9,-117.3 -79.2,-138.8 -14.5,-5.4 -29.3,-8 -43.9,-8"
         style="fill:#371a45;fill-opacity:1;fill-rule:nonzero;stroke:none"
         id="path282" /><path
         d="m 20580.5,16416 c 0,0 506.7,2444.5 2090,2648.5 159.9,20.6 320.4,29.9 479.1,29.9 1412.5,0 2705.7,-736.9 2620,-811 0,0 -557.1,154.8 -1301.1,154.8 -675.3,0 -1504.5,-127.4 -2211.4,-613.8 C 21111.4,17036.2 20580.5,16416 20580.5,16416"
         style="fill:#afa3b5;fill-opacity:1;fill-rule:nonzero;stroke:none"
         id="path284" /></g></g></svg>
